<?xml version="1.0" encoding="utf-8"?>
<!-- Generator: Adobe Illustrator 27.5.0, SVG Export Plug-In . SVG Version: 6.00 Build 0)  -->
<svg version="1.1" id="Слой_1" xmlns="http://www.w3.org/2000/svg" xmlns:xlink="http://www.w3.org/1999/xlink" x="0px" y="0px"
	 viewBox="0 0 7000 5800" style="enable-background:new 0 0 7000 5800;" xml:space="preserve">
<rect style="fill:#FFFFFF;" width="7000" height="5800"/>
<g>
	<path style="fill:#1D1D1B;" d="M6189.6,4948.504v-380h-98.799v-129.2h-304v129.2H5688v380h-38v22.801h570v-22.801H6189.6z
		 M5786.801,4826.904h-30.401v-60.801h30.401V4826.904z M5786.801,4697.705h-30.401v-60.8h30.401V4697.705z M5786.801,4614.104
		H5733.6v106.399h53.201v22.801H5733.6v106.401h53.201v98.799h-76.002v-357.201h76.002V4614.104z M6090.801,4629.305h30.399v60.801
		h-30.399V4629.305z M6090.801,4758.505h30.399v60.8h-30.399V4758.505z M6068,4948.504h-258.4v-486.4H6068V4948.504z
		 M6166.799,4948.504h-75.998v-106.401h53.197v-106.398h-53.197v-22.801h53.197v-106.399h-53.197v-15.201h75.998V4948.504z"/>
	<g>
		<g>
			<g>
				<path style="fill:#1D1D1B;" d="M5912.199,4612.117h-68.398c-6.299,0-11.672-3.119-11.672-9.413v-91.2
					c0-6.294,5.373-13.149,11.672-13.149h68.398c6.297,0,11.908,6.855,11.908,13.149v91.2
					C5924.107,4608.998,5918.496,4612.117,5912.199,4612.117z M5856.334,4590.332h45.989v-67.773h-45.989V4590.332z"/>
				<path style="fill:#1D1D1B;" d="M6026.199,4612.117h-68.398c-6.298,0-11.908-3.119-11.908-9.413v-91.2
					c0-6.294,5.61-13.149,11.908-13.149h68.398c6.297,0,11.67,6.855,11.67,13.149v91.2
					C6037.869,4608.998,6032.496,4612.117,6026.199,4612.117z M5970.096,4590.332h45.988v-67.773h-45.988V4590.332z"/>
			</g>
			<g>
				<path style="fill:#1D1D1B;" d="M5912.199,4750.082h-68.398c-6.299,0-11.672-4.285-11.672-10.576v-91.201
					c0-6.294,5.373-11.983,11.672-11.983h68.398c6.297,0,11.908,5.689,11.908,11.983v91.201
					C5924.107,4745.797,5918.496,4750.082,5912.199,4750.082z M5856.334,4728.299h45.989v-70.193h-45.989V4728.299z"/>
				<path style="fill:#1D1D1B;" d="M6026.199,4750.082h-68.398c-6.298,0-11.908-4.285-11.908-10.576v-91.201
					c0-6.294,5.61-11.983,11.908-11.983h68.398c6.297,0,11.67,5.689,11.67,11.983v91.201
					C6037.869,4745.797,6032.496,4750.082,6026.199,4750.082z M5970.096,4728.299h45.988v-70.193h-45.988V4728.299z"/>
			</g>
			<g>
				<path style="fill:#1D1D1B;" d="M5912.199,4902.572h-68.398c-6.299,0-11.672-4.775-11.672-11.068v-91.199
					c0-6.295,5.373-11.494,11.672-11.494h68.398c6.297,0,11.908,5.199,11.908,11.494v91.199
					C5924.107,4897.797,5918.496,4902.572,5912.199,4902.572z M5856.334,4878.367h45.989v-67.772h-45.989V4878.367z"/>
				<path style="fill:#1D1D1B;" d="M6026.199,4902.572h-68.398c-6.298,0-11.908-4.775-11.908-11.068v-91.199
					c0-6.295,5.61-11.494,11.908-11.494h68.398c6.297,0,11.67,5.199,11.67,11.494v91.199
					C6037.869,4897.797,6032.496,4902.572,6026.199,4902.572z M5970.096,4878.367h45.988v-67.772h-45.988V4878.367z"/>
			</g>
		</g>
	</g>
</g>
<g>
	<path style="fill:#1D1D1B;" d="M4842.738,4942.898h-248.46c-6.052,0-10.962-5.023-10.962-11.079s4.91-11.079,10.962-11.079h248.46
		c6.053,0,10.963,5.023,10.963,11.079S4848.791,4942.898,4842.738,4942.898z"/>
	<path style="fill:#1D1D1B;" d="M4886.586,4987.217h-336.154c-6.053,0-10.961-5.023-10.961-11.08
		c0-6.055,4.908-11.078,10.961-11.078h336.154c6.052,0,10.961,5.023,10.961,11.078
		C4897.547,4982.193,4892.638,4987.217,4886.586,4987.217z"/>
	<path style="fill:#1D1D1B;" d="M4974.072,4878.861h-15.419v-175.385h14.616c6.066,0,10.962-4.895,10.962-10.961
		c0-6.065-4.896-10.961-10.962-10.961H4461.73c-6.066,0-10.962,4.896-10.962,10.961c0,6.066,4.896,10.961,10.962,10.961h14.616
		v175.385h-12.058l-31.789,48.451v53.857c0,6.065,4.896,10.961,10.962,10.961c6.064,0,10.961-4.896,10.961-10.961v-47.354
		l21.702-33.031h484.502l19.949,38.95v41.435c0,6.065,4.898,10.961,10.962,10.961c6.066,0,10.962-4.896,10.962-10.961v-46.77
		L4974.072,4878.861z M4520.191,4878.861h-21.924v-175.385h21.924V4878.861z M4571.346,4878.861h-29.23v-175.385h29.23V4878.861z
		 M4622.498,4878.861h-29.23v-175.385h29.23V4878.861z M4751.554,4878.861h-55.685v-89.373c0-16.369,12.277-29.668,27.476-29.668
		h0.731c15.129,0,27.478,13.299,27.478,29.668V4878.861z M4790.577,4878.861h-17.101v-89.373c0-28.499-22.142-51.592-49.4-51.592
		h-0.731c-27.257,0-49.398,23.093-49.398,51.592v89.373h-29.523v-175.385h146.154V4878.861z M4841.731,4878.861h-29.23v-175.385
		h29.23V4878.861z M4892.885,4878.861h-29.23v-175.385h29.23V4878.861z M4936.732,4878.861h-21.924v-175.385h21.924V4878.861z"/>
	<g>
		<path style="fill:#1D1D1B;" d="M4970.436,4649.906h-504.233c-6.052,0-10.962-3.793-10.962-9.848c0-6.057,4.91-9.85,10.962-9.85
			h504.233c6.051,0,10.961,3.793,10.961,9.85C4981.396,4646.113,4976.486,4649.906,4970.436,4649.906z"/>
		<path style="fill:#1D1D1B;" d="M4947.984,4593.276l-219.633-71.907v-22.508h73.188v-66.891h-73.077
			c0-7.16-4.896-13.494-10.962-13.494s-10.633,6.334-10.633,13.494v89.398l-215.104,71.907c-5.698,1.901-8.841,8.112-6.941,13.812
			c1.899,5.773,8.038,8.916,13.811,7.016l221.279-73.15l221.203,73.15c5.788,1.811,11.969-1.271,13.886-7.016
			C4956.9,4601.389,4953.758,4595.178,4947.984,4593.276z M4728.462,4455.016h51.153v21.923h-51.153V4455.016z"/>
	</g>
</g>
<g>
	<g>
		<rect x="3307.019" y="4772.824" style="fill:#1D1D1B;" width="30.672" height="38.342"/>
		<g>
			<rect x="3307.019" y="4703.812" style="fill:#1D1D1B;" width="30.672" height="38.341"/>
			<rect x="3307.019" y="4841.838" style="fill:#1D1D1B;" width="30.672" height="38.342"/>
		</g>
		<rect x="3307.019" y="4918.52" style="fill:#1D1D1B;" width="30.672" height="35.785"/>
	</g>
	<g>
		<rect x="3657.198" y="4772.824" style="fill:#1D1D1B;" width="30.672" height="38.342"/>
		<g>
			<rect x="3657.198" y="4703.812" style="fill:#1D1D1B;" width="30.672" height="38.341"/>
			<rect x="3657.198" y="4841.838" style="fill:#1D1D1B;" width="30.672" height="38.342"/>
		</g>
		<rect x="3657.198" y="4918.52" style="fill:#1D1D1B;" width="30.672" height="35.785"/>
	</g>
	<g>
		<g>
			<g>
				<rect x="3483.386" y="4637.354" style="fill:#1D1D1B;" width="28.117" height="35.785"/>
				<g>
					<rect x="3549.843" y="4637.354" style="fill:#1D1D1B;" width="30.673" height="35.785"/>
					<g>
						<rect x="3414.372" y="4637.354" style="fill:#1D1D1B;" width="30.673" height="35.785"/>
					</g>
				</g>
			</g>
			<g>
				<g>
					<rect x="3483.386" y="4553.004" style="fill:#1D1D1B;" width="28.117" height="38.342"/>
					<g>
						<rect x="3549.843" y="4553.004" style="fill:#1D1D1B;" width="30.673" height="38.342"/>
						<g>
							<rect x="3414.372" y="4553.004" style="fill:#1D1D1B;" width="30.673" height="38.342"/>
						</g>
					</g>
				</g>
				<g>
					<rect x="3483.386" y="4719.148" style="fill:#1D1D1B;" width="28.117" height="38.34"/>
					<g>
						<rect x="3549.843" y="4719.148" style="fill:#1D1D1B;" width="30.673" height="38.34"/>
						<g>
							<rect x="3414.372" y="4719.148" style="fill:#1D1D1B;" width="30.673" height="38.34"/>
						</g>
					</g>
				</g>
			</g>
			<g>
				<rect x="3483.386" y="4803.497" style="fill:#1D1D1B;" width="28.117" height="38.341"/>
				<g>
					<rect x="3549.843" y="4803.497" style="fill:#1D1D1B;" width="30.673" height="38.341"/>
					<g>
						<rect x="3414.372" y="4803.497" style="fill:#1D1D1B;" width="30.673" height="38.341"/>
					</g>
				</g>
			</g>
		</g>
		<path style="fill:#1D1D1B;" d="M3773.6,4649.99h-152v-121.602h22.8c6.31,0,11.4-5.092,11.4-11.398c0-6.309-5.091-11.4-11.4-11.4
			H3500v-17.557l76.76-27.892c9.779-3.481,10.093-17.222,0.457-21.281l-81.852-33.591c-8.944-4.563-18.165-0.373-18.165,9.12v91.2
			h-136.8c-6.308,0-11.399,5.092-11.399,11.4c0,6.307,5.091,11.398,11.399,11.398h30.399v121.602H3226.4
			c-6.308,0-11.4,5.092-11.4,11.398c0,6.309,5.092,11.4,11.4,11.4h15.2v311.6h-22.8v22.801H3773.6v-22.801h-22.799v-311.6h22.799
			c6.309,0,11.4-5.092,11.4-11.4C3785,4655.082,3779.908,4649.99,3773.6,4649.99z M3500,4431.869l41.268,16.948L3500,4463.789
			V4431.869z M3370.8,4984.389H3264.4v-311.6H3370.8V4984.389z M3522.8,4984.389H3462v-91.2h60.8V4984.389z M3598.8,4984.389h-53.2
			v-102.6c0-6.308-5.092-11.4-11.399-11.4H3450.6c-6.308,0-11.399,5.093-11.399,11.4v102.6h-45.6v-456H3598.8V4984.389z
			 M3728.001,4984.389H3621.6v-311.6h106.401V4984.389z"/>
	</g>
</g>
<g>
	<g>
		<path style="fill:#1D1D1B;" d="M2179.398,4693.285c-3.349,4.625-9.972,6.028-15.058,2.45l-0.852,81.608
			c0,5.979-4.828,10.809-10.808,10.809c-5.979,0-10.375-4.83-10.375-10.809c0,0-0.577-96.545,0-97.771l-48.057-34.798l-53.279,38.33
			c0.072,0.144,0,94.239,0,94.239c0,5.979-4.792,10.809-10.772,10.809c-5.979,0-10.807-4.83-10.807-10.809v-78.895
			c-4.826,3.026-11.096,1.802-14.481-2.809c-3.459-4.898-2.305-11.6,2.522-15.131l80.55-57.855c3.746-2.664,8.862-2.664,12.608,0
			l76.359,55.502C2181.776,4681.688,2182.929,4688.389,2179.398,4693.285z"/>
	</g>
	<path style="fill:#1D1D1B;" d="M2118.155,4788.152c-5.97,0-10.875-4.842-10.875-10.809v-36.996h-29.003v36.996
		c0,5.967-4.906,10.809-10.875,10.809c-5.971,0-10.877-4.842-10.877-10.809v-46.832c0-5.967,3.729-11.915,9.698-11.915h50.435
		c5.969,0,12.373,5.948,12.373,11.915v46.832C2129.03,4783.311,2124.125,4788.152,2118.155,4788.152z"/>
	<path style="fill:#1D1D1B;" d="M2565.446,4493.906c-3.359,4.632-9.991,6.016-15.059,2.449l-5.044-3.604v82.857
		c0,5.978-4.826,10.808-10.808,10.808c-5.978,0-10.373-4.83-10.373-10.808c0,0-0.578-96.546,0-97.771l-48.056-34.799l-53.27,38.33
		c0.073,0.144,0,0.361,0,0.575v93.665c0,5.978-4.802,10.808-10.781,10.808c-5.981,0-10.807-4.83-10.807-10.808v-78.894
		c-4.83,3.024-11.096,1.8-14.483-2.809c-3.458-4.9-2.306-11.602,2.521-15.133l80.551-57.855c3.746-2.664,8.863-2.664,12.608,0
		l80.549,57.855C2567.824,4482.305,2568.977,4489.006,2565.446,4493.906z"/>
	<path style="fill:#1D1D1B;" d="M2500.017,4586.416c-5.971,0-10.876-4.841-10.876-10.808v-35.858h-29.002v35.858
		c0,5.967-4.907,10.808-10.876,10.808c-5.972,0-10.876-4.841-10.876-10.808v-46.831c0-5.967,3.722-10.779,9.693-10.779h50.433
		c5.972,0,12.379,4.813,12.379,10.779v46.831C2510.892,4581.575,2505.985,4586.416,2500.017,4586.416z"/>
	<path style="fill:#1D1D1B;" d="M2367.074,4591.471c-3.874,5.342-11.261,5.545-15.658,2.451v82.555
		c0,5.979-5.429,10.807-11.41,10.807c-5.98,0-10.375-4.828-10.375-10.807c0,0-0.576-91.34,0-92.563l-47.714-36.675
		c0,0-53.61,36.458-53.61,36.675v92.563c0,5.979-4.803,10.807-10.782,10.807c-5.981,0-10.808-4.828-10.808-10.807v-78.895
		c-4.827,3.025-11.095,1.801-14.482-2.809c-3.458-4.9-2.306-11.601,2.521-15.131l80.55-57.856c3.748-2.665,8.862-2.665,12.61,0
		l76.707,54.554C2369.45,4579.871,2370.604,4586.571,2367.074,4591.471z"/>
	<path style="fill:#1D1D1B;" d="M2304.251,4687.283c-5.971,0-10.875-4.84-10.875-10.807v-37.636h-29.002v37.636
		c0,5.967-4.905,10.807-10.875,10.807c-5.971,0-10.876-4.84-10.876-10.807v-46.834c0-5.964,4.957-12.553,10.926-12.553h50.435
		c5.969,0,11.144,6.589,11.144,12.553v46.834C2315.127,4682.443,2310.22,4687.283,2304.251,4687.283z"/>
	<path style="fill:#1D1D1B;" d="M2023.897,4939.452c-5.97,0-10.876-4.84-10.876-10.808V4816.97c0-5.966,4.002-11.366,9.973-11.366
		h129.686c5.971,0,12.603,5.4,12.603,11.366v46.831c0,5.967-4.906,10.807-10.876,10.807c-5.97,0-10.876-4.84-10.876-10.807v-36.446
		h-108.758v101.29C2034.773,4934.612,2029.867,4939.452,2023.897,4939.452z"/>
	<path style="fill:#1D1D1B;" d="M2340.504,4867.404c-5.971,0-10.875-4.84-10.875-10.807v-130.75h-101.508v109.136
		c0,5.966-3.697,10.808-9.667,10.808s-9.667-4.842-9.667-10.808v-118.882c0-5.967,2.769-12.006,8.739-12.006h122.48
		c5.972,0,11.374,6.039,11.374,12.006v140.496C2351.38,4862.564,2346.473,4867.404,2340.504,4867.404z"/>
	<path style="fill:#1D1D1B;" d="M2405.76,4845.791c-5.972,0-10.876-4.842-10.876-10.808v-219.75c0-5.966,3.996-10.229,9.967-10.229
		h129.686c5.972,0,12.609,4.264,12.609,10.229v133.29c0,5.967-4.907,10.809-10.876,10.809c-5.971,0-10.876-4.842-10.876-10.809
		V4624.34h-108.757v210.644C2416.635,4840.949,2411.729,4845.791,2405.76,4845.791z"/>
	<path style="fill:#1D1D1B;" d="M2550.388,4790.385l-10.302,68.52c-1.037,7.049-8.096,10.135-12.321,9.076
		c-5.908-0.865-9.944-6.339-9.077-12.249l6.125-41.067l-186.751,110.668c-5.114,3.025-11.671,1.368-14.771-3.676l-45.102-74.065
		c0,0-268.166,144.098-269.895,144.098c-3.819,0-7.565-2.018-9.51-5.692c-2.81-5.188-0.864-11.744,4.395-14.627l273.784-147.699
		c5.044-2.737,11.385-1.008,14.337,3.891l44.887,73.777l175.799-104.182l-42.292-3.819c-5.908-0.503-10.305-5.764-9.8-11.742
		c0.577-5.909,5.908-10.23,11.745-9.8l69.022,6.27C2546.635,4778.499,2551.309,4784.125,2550.388,4790.385z"/>
</g>
<g>
	<path style="fill:#1D1D1B;" d="M1038.399,4943.738h-247c-6.293,0-11.4-6.064-11.4-12.362v-253.851c0-3.477,1.587-7.4,4.31-9.563
		l250.154-198.617c4.15-3.296,10.02-3.302,14.169-0.008l251.204,199.252c2.731,2.164,4.076,5.455,4.076,8.936v37.25
		c0,6.299-4.621,11.4-10.915,11.4c-6.294,0-10.915-5.102-10.915-11.4v-31.739l-240.768-190.212l-239.488,189.57v239.514h236.57
		c6.294,0,11.4,4.618,11.4,10.915S1044.693,4943.738,1038.399,4943.738z"/>
	<path style="fill:#1D1D1B;" d="M1338.599,4943.738h-258.4c-6.293,0-11.561-6.064-11.561-12.362v-121.537
		c0-3.596,1.782-7.619,4.66-9.771l128.906-96.184c4.053-3.021,9.616-3.018,13.669,0.003l129.546,96.818
		c2.878,2.152,4.581,5.537,4.581,9.133v121.537C1350,4937.674,1344.893,4943.738,1338.599,4943.738z M1090.468,4921.908h237.702
		V4815.55l-119.192-88.302l-118.51,87.672V4921.908z"/>
</g>
<g>
	<g>
		<path style="fill:#1D1D1B;" d="M5734.031,3647.829c-17.465,0-31.667-11.483-31.667-25.6v-34.591
			c0-14.356,13.909-25.601,31.667-25.601s31.668,11.244,31.668,25.601v34.591
			C5765.699,3636.346,5751.495,3647.829,5734.031,3647.829z M5735.25,3584.415c-5.281,0-8.526,2.608-8.526,3.224v34.591
			c0,0.615,3.245,3.223,8.526,3.223s8.525-2.607,8.525-3.223v-34.591C5743.775,3587.023,5740.531,3584.415,5735.25,3584.415z"/>
		<path style="fill:#1D1D1B;" d="M5734.031,3748.518c-17.465,0-31.667-11.487-31.667-25.604v-34.589
			c0-14.117,14.202-25.603,31.667-25.603c17.464,0,31.668,11.485,31.668,25.603v34.589
			C5765.699,3737.03,5751.495,3748.518,5734.031,3748.518z M5735.25,3685.1c-5.281,0-8.526,2.607-8.526,3.225v34.589
			c0,0.615,3.245,3.226,8.526,3.226s8.525-2.61,8.525-3.226v-34.589C5743.775,3687.707,5740.531,3685.1,5735.25,3685.1z"/>
		<path style="fill:#1D1D1B;" d="M6131.096,3647.829c-17.465,0-31.667-11.483-31.667-25.6v-34.591
			c0-14.356,13.909-25.601,31.667-25.601c17.759,0,31.668,11.244,31.668,25.601v34.591
			C6162.764,3636.346,6148.56,3647.829,6131.096,3647.829z M6131.096,3584.415c-5.281,0-7.308,2.608-7.308,3.224v34.591
			c0,0.615,2.026,3.223,7.308,3.223s7.309-2.607,7.309-3.223v-34.591C6138.404,3587.023,6136.377,3584.415,6131.096,3584.415z"/>
		<path style="fill:#1D1D1B;" d="M6131.096,3748.518c-17.465,0-31.667-11.487-31.667-25.604v-34.589
			c0-14.117,14.202-25.603,31.667-25.603c17.464,0,31.668,11.485,31.668,25.603v34.589
			C6162.764,3737.03,6148.56,3748.518,6131.096,3748.518z M6131.096,3685.1c-5.281,0-7.308,2.607-7.308,3.225v34.589
			c0,0.615,2.026,3.226,7.308,3.226s7.309-2.61,7.309-3.226v-34.589C6138.404,3687.707,6136.377,3685.1,6131.096,3685.1z"/>
	</g>
	<g>
		<path style="fill:#1D1D1B;" d="M5947.746,3327.187c0.476-1.642,0.792-3.356,0.792-5.222v-37.146h71.25v-67.132h-73.39
			c-2.057-3.73-5.698-6.192-9.736-6.192c-6.57,0-11.875,6.416-11.875,14.396v96.074c0,1.417,0.16,2.834,0.555,4.102l-187.229,68.924
			l8.629,20.811L5935,3346.58l188.258,69.221l8.628-20.811L5947.746,3327.187z M5948.538,3240.063h47.499v22.377h-47.499V3240.063z"
			/>
		<g>
			<path style="fill:#1D1D1B;" d="M6069.582,3516.052v-22.377h142.5v-22.378h-142.5v-59.673h-23.75v358.04h-213.748v-358.04h-23.75
				v59.673h-142.5v22.378h142.5v22.377H5650v275.99h570v-275.99H6069.582z M5808.334,3769.664h-134.583V3538.43h134.583V3769.664z
				 M6196.248,3769.664h-126.666V3538.43h126.666V3769.664z"/>
		</g>
		<g>
			<g>
				<path style="fill:#1D1D1B;" d="M5980.065,3703.763c-17.466,0-31.667-11.487-31.667-25.605v-34.589
					c0-14.117,14.201-25.602,31.667-25.602c17.464,0,31.668,11.484,31.668,25.602v34.589
					C6011.733,3692.275,5997.529,3703.763,5980.065,3703.763z M5980.065,3640.346c-5.281,0-7.308,2.607-7.308,3.223v34.589
					c0,0.616,2.026,3.229,7.308,3.229c5.28,0,7.308-2.612,7.308-3.229v-34.589
					C5987.373,3642.953,5985.346,3640.346,5980.065,3640.346z"/>
				<path style="fill:#1D1D1B;" d="M5885.063,3703.763c-17.466,0-31.668-11.487-31.668-25.605v-34.589
					c0-14.117,14.202-25.602,31.668-25.602c17.463,0,31.668,11.484,31.668,25.602v34.589
					C5916.73,3692.275,5902.525,3703.763,5885.063,3703.763z M5885.063,3640.346c-5.281,0-7.309,2.607-7.309,3.223v34.589
					c0,0.616,2.027,3.229,7.309,3.229s7.308-2.612,7.308-3.229v-34.589C5892.37,3642.953,5890.344,3640.346,5885.063,3640.346z"/>
			</g>
			<path style="fill:#1D1D1B;" d="M5885.063,3491.187c-17.466,0-31.668-11.482-31.668-25.601v-34.59
				c0-14.356,13.91-25.601,31.668-25.601c17.759,0,31.668,11.244,31.668,25.601v34.59
				C5916.73,3479.704,5902.525,3491.187,5885.063,3491.187z M5885.063,3427.773c-5.281,0-7.309,2.607-7.309,3.223v34.59
				c0,0.616,2.027,3.224,7.309,3.224s7.308-2.607,7.308-3.224v-34.59C5892.37,3430.381,5890.344,3427.773,5885.063,3427.773z"/>
			<path style="fill:#1D1D1B;" d="M5885.063,3599.335c-17.466,0-31.668-11.488-31.668-25.605v-34.589
				c0-14.118,14.202-25.601,31.668-25.601c17.463,0,31.668,11.482,31.668,25.601v34.589
				C5916.73,3587.847,5902.525,3599.335,5885.063,3599.335z M5885.063,3535.917c-5.281,0-7.309,2.607-7.309,3.224v34.589
				c0,0.615,2.027,3.227,7.309,3.227s7.308-2.611,7.308-3.227v-34.589C5892.37,3538.524,5890.344,3535.917,5885.063,3535.917z"/>
			<path style="fill:#1D1D1B;" d="M5980.065,3491.187c-17.466,0-31.667-11.482-31.667-25.601v-34.59
				c0-14.356,13.908-25.601,31.667-25.601s31.668,11.244,31.668,25.601v34.59
				C6011.733,3479.704,5997.529,3491.187,5980.065,3491.187z M5980.065,3427.773c-5.281,0-7.308,2.607-7.308,3.223v34.59
				c0,0.616,2.026,3.224,7.308,3.224c5.28,0,7.308-2.607,7.308-3.224v-34.59C5987.373,3430.381,5985.346,3427.773,5980.065,3427.773
				z"/>
			<path style="fill:#1D1D1B;" d="M5980.065,3599.335c-17.466,0-31.667-11.488-31.667-25.605v-34.589
				c0-14.118,14.201-25.601,31.667-25.601c17.464,0,31.668,11.482,31.668,25.601v34.589
				C6011.733,3587.847,5997.529,3599.335,5980.065,3599.335z M5980.065,3535.917c-5.281,0-7.308,2.607-7.308,3.224v34.589
				c0,0.615,2.026,3.227,7.308,3.227c5.28,0,7.308-2.611,7.308-3.227v-34.589
				C5987.373,3538.524,5985.346,3535.917,5980.065,3535.917z"/>
		</g>
	</g>
</g>
<g>
	<g>
		<g>
			<path style="fill:#1D1D1B;" d="M4582.5,3790.518h-116.25c-18.611,0-33.75-15.139-33.75-33.75v-123.752h22.5v123.752
				c0,6.203,5.047,11.251,11.25,11.251h116.25V3790.518z"/>
			<path style="fill:#1D1D1B;" d="M4968.75,3790.518H4852.5v-22.499h116.25c6.203,0,11.25-5.048,11.25-11.251v-123.752h22.5v123.752
				C5002.5,3775.379,4987.359,3790.518,4968.75,3790.518z"/>
		</g>
		<path style="fill:#1D1D1B;" d="M4455,3359.264h-22.5v-112.496c0-18.611,15.139-33.749,33.75-33.749h116.25v22.5h-116.25
			c-6.203,0-11.25,5.046-11.25,11.249V3359.264z"/>
		<path style="fill:#1D1D1B;" d="M5002.5,3359.264H4980v-112.496c0-6.203-5.047-11.249-11.25-11.249h-116.247v-22.5h116.247
			c18.609,0,33.75,15.138,33.75,33.749V3359.264z"/>
	</g>
	<path style="fill:#1D1D1B;" d="M4941.8,3458.296l-211.351-148.875c-3.898-2.7-9.073-2.7-12.974,0l-211.351,148.875
		c-5.1,3.6-6.3,10.574-2.699,15.675c2.174,3.15,5.625,4.801,9.149,4.801c2.25,0,4.499-0.676,6.524-2.102l40.949-28.801v222.15
		h-14.998c-6.226,0-11.25,5.025-11.25,11.251s5.024,11.249,11.25,11.249h375c6.223,0,11.248-5.023,11.248-11.249
		s-5.025-11.251-11.248-11.251h-30.002V3449.37l38.776,27.3c5.101,3.6,12.075,2.4,15.675-2.699
		C4948.1,3468.87,4946.9,3461.896,4941.8,3458.296z M4867.55,3670.02h-284.999v-238.05l141.375-99.524l143.624,101.101V3670.02z"/>
	<path style="fill:#1D1D1B;" d="M4725.838,3430.246h-3.75c-40.351,0-73.125,32.774-73.125,73.124v99.375
		c0,6.226,5.1,11.25,11.25,11.25h127.498c6.301,0,11.252-5.024,11.252-11.25v-99.375
		C4798.963,3463.021,4766.113,3430.246,4725.838,3430.246z M4671.463,3542.521h39.899v48.976h-39.899V3542.521z M4776.461,3591.496
		h-42.6v-48.976h42.6V3591.496z M4776.461,3520.02h-104.998v-16.649c0-27.9,22.799-50.624,50.625-50.624h3.75
		c27.975,0,50.623,22.724,50.623,50.624V3520.02z"/>
</g>
<g>
	<path style="fill:#1D1D1B;" d="M3589.934,3264.313c0,12.226-9.976,22.201-22.125,22.201c-12.225,0-22.202-9.976-22.202-22.201
		c0-12.149,9.978-22.124,22.202-22.124C3579.958,3242.189,3589.934,3252.164,3589.934,3264.313z"/>
	<path style="fill:#1D1D1B;" d="M3739.707,3718.664v-226.8c3.15-1.949,5.25-5.475,5.25-9.45c0-6.226-5.024-11.25-11.248-11.25
		h-472.501c-6.225,0-11.25,5.024-11.25,11.25c0,5.699,4.199,10.425,9.75,11.1v225.15h-15v22.5h510.001v-22.5H3739.707z
		 M3359.006,3718.664h-37.5v-94.574c0-10.201,8.25-18.451,19.051-18.451c10.2,0,18.448,8.25,18.448,18.451V3718.664z
		 M3464.007,3718.664h-37.5v-94.574c0-10.201,8.25-18.451,19.051-18.451c10.2,0,18.449,8.25,18.449,18.451V3718.664z
		 M3576.507,3718.664h-37.5v-94.574c0-10.201,8.25-18.451,19.051-18.451c10.199,0,18.449,8.25,18.449,18.451V3718.664z
		 M3681.507,3718.664h-37.501v-94.574c0-10.201,8.252-18.451,19.052-18.451c10.198,0,18.449,8.25,18.449,18.451V3718.664z
		 M3717.207,3718.664h-13.201v-94.574c0-22.576-18.374-40.951-41.547-40.951c-22.578,0-40.951,18.375-40.951,40.951v94.574h-22.501
		v-94.574c0-22.576-18.374-40.951-41.551-40.951c-22.574,0-40.948,18.375-40.948,40.951v94.574h-30.001v-94.574
		c0-22.576-18.375-40.951-41.55-40.951c-22.575,0-40.949,18.375-40.949,40.951v94.574h-22.501v-94.574
		c0-22.576-18.375-40.951-41.55-40.951c-22.574,0-40.95,18.375-40.95,40.951v94.574h-16.8v-225h435V3718.664z"/>
	<rect x="3215" y="3765.635" style="fill:#1D1D1B;" width="570" height="21.737"/>
	<path style="fill:#1D1D1B;" d="M3499.683,3337.59l195.15,120.149c5.248,3.226,12.226,1.574,15.45-3.675
		c3.223-5.324,1.575-12.225-3.676-15.524l-190.425-117.226v-7.65h108.75c6.225,0,11.251-5.024,11.251-11.251v-74.999
		c0-6.225-5.026-11.25-11.251-11.25h-116.251c-6.393,0-15,8.384-15,14.999v83.7l-200.925,123.677c-5.25,3.3-6.9,10.2-3.674,15.524
		c3.129,5.141,10.052,6.958,15.524,3.675L3499.683,3337.59z M3516.183,3238.664h97.499v52.5h-97.499V3238.664z"/>
	<path style="fill:#1D1D1B;" d="M3497.457,3440.644c-20.676,0-37.5-16.822-37.5-37.499s16.824-37.5,37.5-37.5s37.5,16.823,37.5,37.5
		S3518.133,3440.644,3497.457,3440.644z M3497.457,3388.144c-8.269,0-15,6.728-15,15.001c0,8.271,6.731,15,15,15
		c8.27,0,15.001-6.729,15.001-15C3512.458,3394.871,3505.727,3388.144,3497.457,3388.144z"/>
</g>
<g>
	<g>
		<path style="fill:#1D1D1B;" d="M2555.913,3760.938h-46.346V3263.34c0-5.793-4.249-10.66-9.964-11.433
			c0,0-193.456-29.854-208.246-30.704c0,0-15.526-3.515-19.853-0.656l-112.002,73.535c-3.321,2.164-5.252,5.794-5.252,9.733v457.122
			h-39.472c-0.154-36.535-2.857-105.514-38.853-143.054c0.618-7.569,5.562-15.139,13.055-19.233
			c10.427-5.639,25.257-4.712,34.681,2.086c5.176,3.707,12.436,2.549,16.144-2.627c3.786-5.175,2.627-12.436-2.549-16.143
			c-16.606-12.051-41.016-13.596-59.322-3.709c-8.574,4.713-15.371,11.742-19.773,19.852c-3.167-5.406-4.636-10.582-4.172-14.908
			c0.542-4.787,3.63-9.037,9.346-12.82c5.33-3.555,6.72-10.738,3.168-16.068c-3.554-5.33-10.736-6.797-16.066-3.244
			c-14.368,9.656-18.539,21.396-19.466,29.507c-1.313,11.432,2.626,23.714,11.277,35.454c-9.192,1.699-17.612,4.944-24.563,9.656
			c-16.686,11.2-24.101,30.588-18.152,47.118c1.777,4.712,8.921,10.891,14.908,6.952c5.286-3.479,9.114-8.807,6.874-14.831
			c-2.24-6.333,1.701-14.908,9.27-20.006c2.935-1.931,6.333-3.554,10.119-4.635c-5.639,16.916-5.252,35.764,1.932,52.37
			c1.853,4.403,9.269,10.351,15.215,6.025c5.871-2.471,8.575-9.346,6.026-15.217c-5.715-13.285-4.944-29.197,1.389-42.252
			c23.947,32.828,26.186,89.91,26.342,119.727h-68.67c-6.411,0-11.586,5.176-11.586,11.586c0,6.412,5.176,11.586,11.586,11.586
			h532.976c6.411,0,11.587-5.174,11.587-11.586C2567.5,3766.113,2562.324,3760.938,2555.913,3760.938z M2208.32,3760.938h-30.897
			v-42.098l30.897-2.162V3760.938z M2208.32,3693.428l-30.897,2.086v-43.951l30.897-4.249V3693.428z M2208.32,3623.986
			l-30.897,4.248v-43.951l30.897-8.496V3623.986z M2208.32,3551.841l-30.897,8.497v-43.024l30.897-12.822V3551.841z
			 M2208.32,3479.465l-30.897,12.668v-49.203l30.897-12.822V3479.465z M2208.32,3405.079l-30.897,12.669v-41.865
			c0.233,0,0.386-0.155,0.618-0.232l30.279-15.525V3405.079z M2208.32,3334.018l-30.897,15.912v-39.857l30.897-20.316V3334.018z
			 M2270.114,3760.938h-38.62v-45.882l38.62-2.626V3760.938z M2270.114,3689.18l-38.62,2.625v-47.658l38.62-5.33V3689.18z
			 M2270.114,3615.413l-38.62,5.329v-51.289l38.62-10.582V3615.413z M2270.114,3534.848l-38.62,10.582v-50.439l38.62-15.988
			V3534.848z M2270.114,3453.975l-38.62,15.912v-49.281l38.62-15.989V3453.975z M2270.114,3379.59l-38.62,15.912v-47.272
			l38.62-19.851V3379.59z M2270.114,3302.348l-38.62,19.773v-47.582l38.62-25.413V3302.348z M2339.633,3301.42l-30.897-4.402v23.327
			l30.897,4.479v57.238l-30.897-3.168v23.25l30.897,3.168v51.134l-30.897-3.167v23.251l30.897,3.167v56.54l-30.897-2.085v23.251
			l30.897,2.085v56.618l-30.897-1.081v23.173l30.897,1.082v51.212l-30.897-1.081v23.172l30.897,1.082v47.272h-46.345v-515.131
			l15.448,2.239l30.897,4.402V3301.42z M2409.152,3760.938h-46.347v-46.5l46.347,1.622V3760.938z M2409.152,3692.888l-46.347-1.623
			v-51.212l46.347,1.622V3692.888z M2409.152,3618.502l-46.347-1.623v-55.769l46.347,3.166V3618.502z M2409.152,3541.027
			l-46.347-3.166v-55.771l46.347,4.79V3541.027z M2409.152,3463.63l-46.347-4.788v-51.135l46.347,4.789V3463.63z M2409.152,3389.246
			l-46.347-4.79v-56.388l46.347,6.645V3389.246z M2409.152,3311.308l-46.347-6.566v-48.972l46.347,6.566V3311.308z
			 M2486.394,3760.938h-54.07v-44.105l54.07,1.854V3760.938z M2486.394,3695.514l-54.07-1.854v-51.213l54.07,1.855V3695.514z
			 M2486.394,3621.128l-54.07-1.854v-53.376l54.07,3.708V3621.128z M2486.394,3546.356l-54.07-3.707v-53.375l54.07,5.563V3546.356z
			 M2486.394,3471.586l-54.07-5.561v-51.135l54.07,5.561V3471.586z M2486.394,3397.201l-54.07-5.563v-53.605l54.07,7.725V3397.201z
			 M2486.394,3322.353l-54.07-7.724v-48.972l54.07,7.724V3322.353z"/>
	</g>
</g>
<g>
	<path style="fill:#1D1D1B;" d="M1338.138,3792.033h-32.899v-153.689c0-6.568-4.098-11.89-10.64-11.89h-89.793v-75.216
		c0-6.542-6.568-11.645-13.137-11.645h-35.722v-225.84c0-6.568-5.212-13.028-11.78-13.028h-50.652v-103.148
		c0-5.809-5.646-10.505-12.214-10.505c-6.569,0-12.215,4.696-12.215,10.505v103.148h-51.574c-6.569,0-10.857,6.46-10.857,13.028
		v106.405h-68.322c-6.569,0-13.111,5.781-13.111,12.351v115.227h-73.968c-6.568,0-12.894,4.859-12.894,11.428v232.869h-46.498
		c-6.542,0-11.862,5.646-11.862,12.216c0,6.568,5.32,12.215,11.862,12.215h546.276c6.542,0,11.862-5.646,11.862-12.215
		C1350,3797.68,1344.68,3792.033,1338.138,3792.033z M925.221,3792.033H862.79v-219.866h62.431V3792.033z M1028.369,3792.033
		h-78.718V3444.59h78.718V3792.033z M1093.515,3551.238v240.795h-40.716V3432.51c0-6.569-4.994-12.351-11.536-12.351h-12.894
		v-95.005h103.147v214.439h-26.927C1098.021,3539.594,1093.515,3544.696,1093.515,3551.238z M1155.947,3627.159
		c-4.668,1.63-8.144,6.026-8.144,11.185v153.689h-32.573v-228.01h65.146v62.431h-20.358
		C1158.608,3626.454,1157.221,3626.698,1155.947,3627.159z M1283.524,3792.033h-111.292v-141.148h111.292V3792.033z"/>
</g>
<g>
	<path style="fill:#1D1D1B;" d="M5866.786,2522.678l-136.851,10.276v-29.479l137.407-18.831l108.643,17.666
		c6.888,0.954,13.802-3.867,14.753-10.753c0.955-6.886-2.938-13.216-9.826-14.17l-111.715-17.877
		c-1.061-0.159-1.379-0.159-2.411-0.026l-136.851,18.672v-29.24l137.698-27.836l108.352,28.233
		c6.888,0.927,13.802-3.866,14.753-10.753c0.955-6.885-2.938-13.215-9.826-14.168l-111.715-28.472
		c-1.245-0.186-1.168-0.159-2.411,0.054l-136.851,27.464v-30.405l137.514-35.438l108.536,38.245
		c6.808,1.405,13.349-2.993,14.753-9.773c1.379-6.806-3.019-13.456-9.826-14.858l-110.896-38.75
		c-1.643-0.316-1.562-0.344-3.23-0.025l-136.851,34.934v-31.519l137.459-41.317l108.591,45.45
		c6.702,1.853,12.927-2.093,14.753-8.768c1.854-6.701-3.124-13.639-9.826-15.467l-110.102-46.376
		c-2.145-0.583-1.906-0.61-4.024-0.026l-136.851,40.522v-27.889l137.671-50.615l108.379,51.886c6.649,1.88,12.847-1.96,14.753-8.635
		c1.907-6.674-3.15-13.639-9.826-15.547l-109.996-52.918c-2.33-0.662-1.799-0.635-4.13,0.08l-136.851,49.421v-27.57l137.988-61.288
		l108.062,57.075c6.595,2.041,12.661-1.615,14.753-8.262c2.066-6.622-3.205-13.667-9.826-15.733l-109.677-58.401
		c-2.729-0.847-1.802-0.741-4.449,0.292l-148.931,64.017c-13.744,5.376-14.406,16.05-14.406,20.58v358.88c0,0,0,0,0,0.026h-40.869
		c-6.966,0-12.58,6.304-12.58,13.243s5.614,13.243,12.58,13.243h544.864c6.94,0,12.556-6.304,12.556-13.243
		s-5.615-13.243-12.556-13.243h-56.176v-468.054c0.052-4.928-2.648-9.457-7.126-11.521l-178.989-119.821
		c-2.781-1.272-5.985-1.51-8.952-0.61l-92.488,27.916c-5.217,1.563-9.295,6.331-9.295,11.787v109.386l84.754-22.565v51.169
		l183.994,89.548v19.229l-117.967-59.99v26.193l117.967,57.369v19.439l-117.967-50.692v25.902l117.967,47.992v18.858
		l-117.967-40.312v25.824l117.967,37.583v18.62c-0.105,0.477-109.014-28.288-117.967-29.611v25.399
		c1.324,0.716,117.967,26.831,117.967,27.095v18.064l-117.967-18.064v25.453l117.967,15.415v21.188l-117.967-9.747v25.294
		l117.967,9.746v20.129c0,0.106-107.822-2.039-117.967-2.755v25.188c0.346-0.477,116.723,2.834,116.723,2.781v31.174h-391.986
		c0,0,0,0,0-0.026v-27.094l137.514-10.331l108.536,5.958c6.939,0.399,14.354-4.873,14.753-11.812
		c0.398-6.938-2.887-12.871-9.826-13.296L5866.786,2522.678z M5939.172,2085.664l-60.917,17.084v-21.084l60.917-17.083V2085.664z
		 M5939.172,2038.466l-60.917,17.083v-20.95l60.917-18.169V2038.466z M5963.01,2012.854l160.156,109.598v19.387l-160.156-102.737
		V2012.854z M5963.01,2066.382l160.156,99.958v19.52l-160.156-94.501V2066.382z M5963.01,2143.296v-24.949l160.156,91.747v18.646
		C6123.166,2228.74,5963.379,2143.376,5963.01,2143.296z"/>
</g>
<g>
	<g>
		<path style="fill:#1D1D1B;" d="M4996.819,2546.387c-1.62-0.811-14.669-7.246-36.289-15.728v-318.437
			c0-5.895-4.612-10.687-10.305-10.687h-141.446c-0.111,0.563,0-160.703,0-160.703c0-5.692-4.318-10.282-10.012-10.282h-219.76
			c-5.692,0-9.943,4.589-9.943,10.282v140.455h-66.189c-5.693,0-10.305,4.611-10.305,10.304v326.132
			c-34.107,11.159-52.826,20.991-54.626,21.936c-5.015,2.678-6.905,8.909-4.229,13.928c2.679,5.016,8.91,6.905,13.928,4.229
			c60.473-30.485,154.088-47.704,222.662-51.972c17.145-1.125,69.813-1.551,76.494-1.237
			c74.369,3.284,160.922,23.568,240.797,60.204c5.21,2.605,11.326,0.395,13.813-4.612
			C5003.95,2555.116,5001.903,2548.929,4996.819,2546.387z M4650.057,2486.699c-56.516,4.904-102.614,14.848-137.238,24.816
			v-309.979h137.238V2486.699z M4736.855,2201.536c-5.693,0-10.305,4.792-10.305,10.687v271.304
			c-0.721-0.022-39.102,0.584-56.246,1.665v-293.6c0-5.693-4.611-10.304-10.304-10.304h-70.688v-130.489h198.996
			c0,0-0.451,150.736,0,150.736H4736.855z M4940.281,2523.078c-45.896-16.355-115.551-35.838-193.482-39.101v-262.192h193.482
			V2523.078z"/>
	</g>
	<path style="fill:#1D1D1B;" d="M4657.981,2107.044h-34.337c-5.691,0-10.301-5.559-10.301-11.25c0-5.69,4.609-11.248,10.301-11.248
		h34.337c5.691,0,10.303,5.558,10.303,11.248C4668.284,2101.485,4663.673,2107.044,4657.981,2107.044z"/>
	<path style="fill:#1D1D1B;" d="M4644.248,2154.29h-27.473c-5.69,0-10.3-4.434-10.3-10.124c0-5.69,4.609-10.124,10.3-10.124h27.473
		c5.689,0,10.3,4.434,10.3,10.124C4654.548,2149.856,4649.938,2154.29,4644.248,2154.29z"/>
	<path style="fill:#1D1D1B;" d="M4912.082,2278.029h-34.338c-5.69,0-10.3-4.433-10.3-10.124c0-5.69,4.609-10.124,10.3-10.124h34.338
		c5.691,0,10.303,4.434,10.303,10.124C4922.385,2273.596,4917.773,2278.029,4912.082,2278.029z"/>
	<path style="fill:#1D1D1B;" d="M4912.082,2318.526h-68.676c-5.691,0-10.3-4.434-10.3-10.124c0-5.69,4.608-10.124,10.3-10.124
		h68.676c5.691,0,10.303,4.434,10.303,10.124C4922.385,2314.092,4917.773,2318.526,4912.082,2318.526z"/>
	<path style="fill:#1D1D1B;" d="M4912.082,2361.272h-82.41c-5.689,0-10.303-5.559-10.303-11.249c0-5.69,4.613-11.25,10.303-11.25
		h82.41c5.691,0,10.303,5.559,10.303,11.25C4922.385,2355.713,4917.773,2361.272,4912.082,2361.272z"/>
	<path style="fill:#1D1D1B;" d="M4912.082,2401.769h-48.072c-5.69,0-10.302-4.434-10.302-10.124s4.611-10.124,10.302-10.124h48.072
		c5.691,0,10.303,4.434,10.303,10.124S4917.773,2401.769,4912.082,2401.769z"/>
	<path style="fill:#1D1D1B;" d="M4912.082,2449.015h-34.338c-5.69,0-10.3-4.434-10.3-10.125c0-5.69,4.609-10.124,10.3-10.124h34.338
		c5.691,0,10.303,4.434,10.303,10.124C4922.385,2444.581,4917.773,2449.015,4912.082,2449.015z"/>
	<path style="fill:#1D1D1B;" d="M4630.512,2264.531h-34.338c-5.69,0-10.303-4.434-10.303-10.124c0-5.69,4.612-10.124,10.303-10.124
		h34.338c5.689,0,10.303,4.434,10.303,10.124C4640.814,2260.097,4636.201,2264.531,4630.512,2264.531z"/>
	<path style="fill:#1D1D1B;" d="M4630.512,2305.026h-27.471c-5.689,0-10.302-4.433-10.302-10.124c0-5.69,4.612-10.124,10.302-10.124
		h27.471c5.689,0,10.303,4.434,10.303,10.124C4640.814,2300.594,4636.201,2305.026,4630.512,2305.026z"/>
	<path style="fill:#1D1D1B;" d="M4630.512,2345.523h-34.338c-5.69,0-10.303-4.434-10.303-10.124c0-5.69,4.612-10.124,10.303-10.124
		h34.338c5.689,0,10.303,4.434,10.303,10.124C4640.814,2341.09,4636.201,2345.523,4630.512,2345.523z"/>
	<path style="fill:#1D1D1B;" d="M4630.512,2388.27h-27.471c-5.689,0-10.302-4.433-10.302-10.124c0-5.69,4.612-10.124,10.302-10.124
		h27.471c5.689,0,10.303,4.434,10.303,10.124C4640.814,2383.836,4636.201,2388.27,4630.512,2388.27z"/>
	<path style="fill:#1D1D1B;" d="M4607.649,2435.516c-5.64,0-10.241-2.995-10.298-8.646c-0.057-5.69,4.506-9.575,10.193-9.634
		l20.57,0.176c5.646-0.223,10.35,4.699,10.407,10.388c0.058,5.69-4.507,8.896-10.194,8.955l-20.569-1.239
		C4607.725,2435.516,4607.687,2435.516,4607.649,2435.516z"/>
	<path style="fill:#1D1D1B;" d="M4850.274,2278.029h-82.409c-5.691,0-10.303-4.433-10.303-10.124c0-5.69,4.611-10.124,10.303-10.124
		h82.409c5.69,0,10.302,4.434,10.302,10.124C4860.576,2273.596,4855.965,2278.029,4850.274,2278.029z"/>
	<path style="fill:#1D1D1B;" d="M4795.334,2318.526h-27.469c-5.691,0-10.303-4.434-10.303-10.124c0-5.69,4.611-10.124,10.303-10.124
		h27.469c5.691,0,10.302,4.434,10.302,10.124C4805.636,2314.092,4801.025,2318.526,4795.334,2318.526z"/>
	<path style="fill:#1D1D1B;" d="M4795.334,2361.272h-27.469c-5.691,0-10.303-5.559-10.303-11.249c0-5.69,4.611-11.25,10.303-11.25
		h27.469c5.691,0,10.302,5.559,10.302,11.25C4805.636,2355.713,4801.025,2361.272,4795.334,2361.272z"/>
	<path style="fill:#1D1D1B;" d="M4836.541,2401.769h-68.676c-5.691,0-10.303-4.434-10.303-10.124s4.611-10.124,10.303-10.124h68.676
		c5.689,0,10.3,4.434,10.3,10.124S4842.23,2401.769,4836.541,2401.769z"/>
	<path style="fill:#1D1D1B;" d="M4850.274,2449.015h-82.409c-5.691,0-10.303-4.434-10.303-10.125c0-5.69,4.611-10.124,10.303-10.124
		h82.409c5.69,0,10.302,4.434,10.302,10.124C4860.576,2444.581,4855.965,2449.015,4850.274,2449.015z"/>
	<path style="fill:#1D1D1B;" d="M4561.836,2264.531h-20.602c-5.691,0-10.303-4.434-10.303-10.124c0-5.69,4.611-10.124,10.303-10.124
		h20.602c5.689,0,10.303,4.434,10.303,10.124C4572.139,2260.097,4567.525,2264.531,4561.836,2264.531z"/>
	<path style="fill:#1D1D1B;" d="M4568.703,2305.026h-27.469c-5.691,0-10.303-4.433-10.303-10.124c0-5.69,4.611-10.124,10.303-10.124
		h27.469c5.691,0,10.301,4.434,10.301,10.124C4579.004,2300.594,4574.395,2305.026,4568.703,2305.026z"/>
	<path style="fill:#1D1D1B;" d="M4561.836,2345.523h-20.602c-5.691,0-10.303-4.434-10.303-10.124c0-5.69,4.611-10.124,10.303-10.124
		h20.602c5.689,0,10.303,4.434,10.303,10.124C4572.139,2341.09,4567.525,2345.523,4561.836,2345.523z"/>
	<path style="fill:#1D1D1B;" d="M4568.703,2388.27h-27.469c-5.691,0-10.303-4.433-10.303-10.124c0-5.69,4.611-10.124,10.303-10.124
		h27.469c5.691,0,10.301,4.434,10.301,10.124C4579.004,2383.836,4574.395,2388.27,4568.703,2388.27z"/>
	<path style="fill:#1D1D1B;" d="M4575.572,2435.516h-34.338c-5.691,0-10.303-4.434-10.303-10.124s4.611-10.125,10.303-10.125h34.338
		c5.689,0,10.299,4.434,10.299,10.125S4581.262,2435.516,4575.572,2435.516z"/>
	<path style="fill:#1D1D1B;" d="M4760.996,2107.044h-68.676c-5.69,0-10.303-5.559-10.303-11.25c0-5.69,4.612-11.248,10.303-11.248
		h68.676c5.69,0,10.303,5.558,10.303,11.248C4771.299,2101.485,4766.687,2107.044,4760.996,2107.044z"/>
	<path style="fill:#1D1D1B;" d="M4760.996,2154.29h-89.279c-5.689,0-10.301-4.434-10.301-10.124c0-5.69,4.611-10.124,10.301-10.124
		h89.279c5.69,0,10.303,4.434,10.303,10.124C4771.299,2149.856,4766.687,2154.29,4760.996,2154.29z"/>
</g>
<g>
	<g>
		<g>
			<path style="fill:#1D1D1B;" d="M3774.177,2558.994h-71.102v-299.377c0-5.978-5.882-11.544-11.858-11.544h-96.603v-69.946
				c0-2.675-1.349-5.279-3.134-7.254l-137.457-151.533c-2.987-3.326-7.616-4.436-11.786-2.845c-4.17,1.615-6.7,5.64-6.7,10.099
				v134.709H3330.45c-5.977,0-10.604,5.737-10.604,11.713v169.056h-47.12c-5.977,0-10.726,5.35-10.726,11.328v205.594h-36.177
				c-5.979,0-10.823,4.869-10.823,10.845c0,5.978,4.844,10.847,10.823,10.847h548.354c5.979,0,10.823-4.869,10.823-10.847
				C3785,2563.862,3780.156,2558.994,3774.177,2558.994z M3319.846,2558.994h-36.153v-195.231h36.153V2558.994z M3435.538,2558.994
				h-94v-375.999h94V2558.994z M3572.922,2558.994h-115.692v-504.296l115.692,127.598V2558.994z M3594.614,2558.994v-289.23h87.571
				v289.631L3594.614,2558.994z"/>
		</g>
		<g>
			<path style="fill:#1D1D1B;" d="M3492.788,2146.841h-14.431c-5.979,0-10.823-4.868-10.823-10.846s4.844-10.847,10.823-10.847
				h14.431c5.979,0,10.822,4.868,10.822,10.847S3498.767,2146.841,3492.788,2146.841z"/>
		</g>
		<g>
			<path style="fill:#1D1D1B;" d="M3528.864,2190.226h-50.507c-5.979,0-10.823-4.868-10.823-10.846
				c0-5.979,4.844-10.846,10.823-10.846h50.507c5.978,0,10.822,4.868,10.822,10.846
				C3539.687,2185.357,3534.842,2190.226,3528.864,2190.226z"/>
		</g>
		<g>
			<path style="fill:#1D1D1B;" d="M3543.292,2233.61h-64.935c-5.979,0-10.823-4.868-10.823-10.846s4.844-10.846,10.823-10.846
				h64.935c5.981,0,10.825,4.868,10.825,10.846S3549.273,2233.61,3543.292,2233.61z"/>
		</g>
		<g>
			<path style="fill:#1D1D1B;" d="M3543.292,2276.994h-64.935c-5.979,0-10.823-4.868-10.823-10.846s4.844-10.846,10.823-10.846
				h64.935c5.981,0,10.825,4.868,10.825,10.846S3549.273,2276.994,3543.292,2276.994z"/>
		</g>
		<g>
			<path style="fill:#1D1D1B;" d="M3543.292,2320.378h-64.935c-5.979,0-10.823-4.867-10.823-10.846
				c0-5.979,4.844-10.846,10.823-10.846h64.935c5.981,0,10.825,4.867,10.825,10.846
				C3554.117,2315.512,3549.273,2320.378,3543.292,2320.378z"/>
		</g>
		<g>
			<path style="fill:#1D1D1B;" d="M3543.292,2370.994h-64.935c-5.979,0-10.823-4.867-10.823-10.846
				c0-5.979,4.844-10.845,10.823-10.845h64.935c5.981,0,10.825,4.867,10.825,10.845
				C3554.117,2366.127,3549.273,2370.994,3543.292,2370.994z"/>
		</g>
		<g>
			<path style="fill:#1D1D1B;" d="M3543.292,2414.378h-64.935c-5.979,0-10.823-4.867-10.823-10.845
				c0-5.979,4.844-10.846,10.823-10.846h64.935c5.981,0,10.825,4.867,10.825,10.846
				C3554.117,2409.511,3549.273,2414.378,3543.292,2414.378z"/>
		</g>
		<g>
			<path style="fill:#1D1D1B;" d="M3543.292,2457.763h-64.935c-5.979,0-10.823-4.868-10.823-10.846s4.844-10.847,10.823-10.847
				h64.935c5.981,0,10.825,4.868,10.825,10.847S3549.273,2457.763,3543.292,2457.763z"/>
		</g>
		<g>
			<path style="fill:#1D1D1B;" d="M3543.292,2501.147h-64.935c-5.979,0-10.823-4.868-10.823-10.846s4.844-10.846,10.823-10.846
				h64.935c5.981,0,10.825,4.868,10.825,10.846S3549.273,2501.147,3543.292,2501.147z"/>
		</g>
		<g>
			<path style="fill:#1D1D1B;" d="M3543.292,2544.532h-64.935c-5.979,0-10.823-4.868-10.823-10.846s4.844-10.846,10.823-10.846
				h64.935c5.981,0,10.825,4.868,10.825,10.846S3549.273,2544.532,3543.292,2544.532z"/>
		</g>
		<g>
			<path style="fill:#1D1D1B;" d="M3406.204,2219.148h-43.292c-5.979,0-10.823-4.867-10.823-10.847
				c0-5.979,4.844-10.845,10.823-10.845h43.292c5.979,0,10.822,4.867,10.822,10.845
				C3417.026,2214.281,3412.183,2219.148,3406.204,2219.148z"/>
		</g>
		<g>
			<path style="fill:#1D1D1B;" d="M3406.204,2262.532h-43.292c-5.979,0-10.823-4.867-10.823-10.845
				c0-5.979,4.844-10.846,10.823-10.846h43.292c5.979,0,10.822,4.867,10.822,10.846
				C3417.026,2257.666,3412.183,2262.532,3406.204,2262.532z"/>
		</g>
		<g>
			<path style="fill:#1D1D1B;" d="M3406.204,2305.917h-43.292c-5.979,0-10.823-4.867-10.823-10.846s4.844-10.846,10.823-10.846
				h43.292c5.979,0,10.822,4.868,10.822,10.846S3412.183,2305.917,3406.204,2305.917z"/>
		</g>
		<g>
			<path style="fill:#1D1D1B;" d="M3406.204,2356.533h-43.292c-5.979,0-10.823-4.868-10.823-10.846s4.844-10.846,10.823-10.846
				h43.292c5.979,0,10.822,4.868,10.822,10.846S3412.183,2356.533,3406.204,2356.533z"/>
		</g>
		<g>
			<path style="fill:#1D1D1B;" d="M3406.204,2399.917h-43.292c-5.979,0-10.823-4.868-10.823-10.846s4.844-10.846,10.823-10.846
				h43.292c5.979,0,10.822,4.868,10.822,10.846S3412.183,2399.917,3406.204,2399.917z"/>
		</g>
		<g>
			<path style="fill:#1D1D1B;" d="M3406.204,2443.302h-43.292c-5.979,0-10.823-4.868-10.823-10.847s4.844-10.846,10.823-10.846
				h43.292c5.979,0,10.822,4.868,10.822,10.846S3412.183,2443.302,3406.204,2443.302z"/>
		</g>
		<g>
			<path style="fill:#1D1D1B;" d="M3406.204,2486.686h-43.292c-5.979,0-10.823-4.867-10.823-10.846s4.844-10.847,10.823-10.847
				h43.292c5.979,0,10.822,4.868,10.822,10.847S3412.183,2486.686,3406.204,2486.686z"/>
		</g>
		<g>
			<path style="fill:#1D1D1B;" d="M3406.204,2530.07h-43.292c-5.979,0-10.823-4.867-10.823-10.847
				c0-5.979,4.844-10.845,10.823-10.845h43.292c5.979,0,10.822,4.867,10.822,10.845
				C3417.026,2525.203,3412.183,2530.07,3406.204,2530.07z"/>
		</g>
		<g>
			<path style="fill:#1D1D1B;" d="M3651.523,2320.378h-36.076c-5.979,0-10.825-4.867-10.825-10.846
				c0-5.979,4.847-10.846,10.825-10.846h36.076c5.979,0,10.822,4.867,10.822,10.846
				C3662.346,2315.512,3657.502,2320.378,3651.523,2320.378z"/>
		</g>
		<g>
			<path style="fill:#1D1D1B;" d="M3651.523,2363.763h-36.076c-5.979,0-10.825-4.867-10.825-10.845s4.847-10.846,10.825-10.846
				h36.076c5.979,0,10.822,4.868,10.822,10.846S3657.502,2363.763,3651.523,2363.763z"/>
		</g>
		<g>
			<path style="fill:#1D1D1B;" d="M3651.523,2407.148h-36.076c-5.979,0-10.825-4.868-10.825-10.846s4.847-10.846,10.825-10.846
				h36.076c5.979,0,10.822,4.868,10.822,10.846S3657.502,2407.148,3651.523,2407.148z"/>
		</g>
		<g>
			<path style="fill:#1D1D1B;" d="M3651.523,2457.763h-36.076c-5.979,0-10.825-4.868-10.825-10.846s4.847-10.847,10.825-10.847
				h36.076c5.979,0,10.822,4.868,10.822,10.847S3657.502,2457.763,3651.523,2457.763z"/>
		</g>
		<g>
			<path style="fill:#1D1D1B;" d="M3651.523,2501.147h-36.076c-5.979,0-10.825-4.868-10.825-10.846s4.847-10.846,10.825-10.846
				h36.076c5.979,0,10.822,4.868,10.822,10.846S3657.502,2501.147,3651.523,2501.147z"/>
		</g>
		<g>
			<path style="fill:#1D1D1B;" d="M3651.523,2544.532h-36.076c-5.979,0-10.825-4.868-10.825-10.846s4.847-10.846,10.825-10.846
				h36.076c5.979,0,10.822,4.868,10.822,10.846S3657.502,2544.532,3651.523,2544.532z"/>
		</g>
	</g>
</g>
<g>
	<g>
		<path style="fill:#1D1D1B;" d="M2556.224,2394.836h-80.819v-230.192c0-6.222-5.027-11.25-11.25-11.25h-103.472l39.252-37.061
			c22.18,20.924,51.617,29.337,69.745,14.037c22.711-19.062,10.921-56.942-9.011-80.62c-23.25-27.638-57.645-39.69-77.884-22.677
			c-17.448,14.661-15.904,45.003,2.565,72.108l-34.4,32.458v-60.409c0-4.331-2.987-8.264-6.87-10.131l-109.271-52.518
			c-3.186-1.52-6.968-1.468-10.129,0.148l-101.381,52.494c-3.733,1.943-6.322,5.8-6.322,10.008v205.199l-111.312,31.463
			c-4.829,1.369-8.164,5.8-8.164,10.827v259.537c0,6.223,5.028,10.728,11.251,10.728h547.473c6.223,0,11.276-4.505,11.276-10.728
			v-172.495C2567.5,2399.54,2562.446,2394.836,2556.224,2394.836z M2397.272,2044.274c8.043-6.738,29.283-0.146,46.172,19.961
			c13.821,16.403,21.49,40.74,11.748,48.912c-7.861,6.68-29.103,0.34-46.172-19.937
			C2392.442,2073.497,2389.132,2051.119,2397.272,2044.274z M2236.452,2566.583h-216.55v-239.375l113.377-32.358l103.173-28.8
			V2566.583z M2236.452,2164.645v78.333l-97.074,27.129v-192.055l91.025-46.746l98.145,46.969v75.119h-80.845
			C2241.48,2153.395,2236.452,2158.423,2236.452,2164.645z M2455.492,2566.583h-196.638v-390.786h196.638V2566.583z
			 M2545.098,2566.583h-69.694v-149.345h69.694V2566.583z"/>
		<g>
			<g>
				<g>
					<rect x="2343.482" y="2282.828" style="fill:#1D1D1B;" width="29.869" height="29.87"/>
				</g>
				<g>
					<rect x="2343.482" y="2350.033" style="fill:#1D1D1B;" width="29.869" height="29.869"/>
					<g>
						<rect x="2343.482" y="2215.623" style="fill:#1D1D1B;" width="29.869" height="29.869"/>
					</g>
				</g>
			</g>
			<g>
				<g>
					<g>
						<rect x="2281.255" y="2282.828" style="fill:#1D1D1B;" width="32.358" height="29.87"/>
						<rect x="2281.255" y="2417.238" style="fill:#1D1D1B;" width="32.358" height="29.869"/>
					</g>
					<g>
						<rect x="2281.255" y="2350.033" style="fill:#1D1D1B;" width="32.358" height="29.869"/>
						<g>
							<rect x="2281.255" y="2215.623" style="fill:#1D1D1B;" width="32.358" height="29.869"/>
						</g>
					</g>
				</g>
				<g>
					<g>
						<rect x="2403.221" y="2215.623" style="fill:#1D1D1B;" width="29.869" height="29.869"/>
						<rect x="2403.221" y="2282.828" style="fill:#1D1D1B;" width="29.869" height="29.87"/>
					</g>
				</g>
			</g>
		</g>
		<g>
			<rect x="2169.247" y="2093.658" style="fill:#1D1D1B;" width="129.432" height="22.402"/>
		</g>
		<g>
			<rect x="2169.247" y="2138.461" style="fill:#1D1D1B;" width="52.271" height="22.402"/>
		</g>
		<g>
			<rect x="2169.247" y="2193.221" style="fill:#1D1D1B;" width="52.271" height="22.402"/>
		</g>
		<g>
			<rect x="2049.771" y="2357.5" style="fill:#1D1D1B;" width="149.346" height="22.402"/>
		</g>
		<g>
			<rect x="2049.771" y="2424.706" style="fill:#1D1D1B;" width="149.346" height="22.402"/>
		</g>
		<g>
			<rect x="2049.771" y="2484.444" style="fill:#1D1D1B;" width="149.346" height="22.402"/>
		</g>
	</g>
</g>
<g>
	<path style="fill:#1D1D1B;" d="M1323.655,2541.692v-396.748c0-4.574-3.089-8.599-7.473-9.892l-111.605-32.979
		c-1.653-0.503-3.401-0.551-5.102-0.192l-48.258,10.347v-30.344c0-4.623-2.994-8.694-7.448-9.94l-137.041-38.342
		c-1.627-0.455-3.424-0.503-5.052-0.168l-179.551,38.367c-4.765,1.006-8.598,5.221-8.598,10.083v459.808H780v21.555h570v-21.555
		H1323.655z M985.966,2541.692H835.084v-451.45l150.882-32.165V2541.692z M1132.059,2541.692h-124.539v-485.745
		c0-0.312-0.023-0.599-0.047-0.91l124.586,34.68V2541.692z M1191.933,2541.692h-40.714v-408.388l40.714-8.766V2541.692z
		 M1302.101,2541.692h-88.613v-415.334l88.613,26.297V2541.692z"/>
	<path style="fill:#1D1D1B;" d="M1282.543,2433.227v20.764c0,0-41.929-4.742-42.576-4.957v-22.01
		C1241.308,2426.545,1282.543,2433.227,1282.543,2433.227z"/>
	<path style="fill:#1D1D1B;" d="M1282.543,2247.88v21.555c-0.645-0.073,0.624-0.24,0-0.456l-42.576-13.818v-21.619
		C1242.003,2232.87,1282.543,2247.88,1282.543,2247.88z"/>
	<g>
		<path style="fill:#1D1D1B;" d="M862.074,2194.915l35.279-7.999v21.171c0,0-34.272,7.041-35.279,6.706v-19.638
			C862.384,2195.058,861.762,2194.986,862.074,2194.915z"/>
		<path style="fill:#1D1D1B;" d="M952.358,2174.51v21.004l-40.636,9.292v-21.17C911.722,2183.635,951.784,2174.533,952.358,2174.51z
			"/>
	</g>
	<g>
		<g>
			<path style="fill:#1D1D1B;" d="M862.074,2126.467l35.279-9.58v21.387c0,0-34.25,10.406-35.279,10.047v-21.687
				C862.241,2126.562,861.905,2126.515,862.074,2126.467z"/>
			<path style="fill:#1D1D1B;" d="M952.358,2102.254v21.123l-40.636,11.017v-21.387
				C911.722,2113.007,951.639,2102.254,952.358,2102.254z"/>
		</g>
		<g>
			<path style="fill:#1D1D1B;" d="M862.074,2267.099l35.279-6.969v21.052c0,0-34.272,6.179-35.279,5.843v-19.614
				C862.457,2267.291,861.667,2267.171,862.074,2267.099z"/>
			<path style="fill:#1D1D1B;" d="M952.358,2249.232v20.932l-40.636,8.143v-21.051
				C911.722,2257.256,951.878,2249.232,952.358,2249.232z"/>
		</g>
	</g>
	<g>
		<path style="fill:#1D1D1B;" d="M1282.543,2186.927v21.867c-0.837-0.072-42.576-16.837-42.576-16.837v-22.68
			C1240.366,2169.675,1282.543,2186.927,1282.543,2186.927z"/>
		<path style="fill:#1D1D1B;" d="M1282.543,2311.201v21.436c-0.55-0.072,0.552-0.192,0-0.359l-42.576-12.598
			c-0.048-0.023,0.048-0.023,0-0.048v-22.034C1241.908,2296.951,1282.543,2311.201,1282.543,2311.201z"/>
	</g>
	<g>
		<g>
			<path style="fill:#1D1D1B;" d="M1062.604,2334.238v20.813c0,0-28.069-3.736-28.524-3.855v-19.902
				C1035.374,2330.934,1062.604,2334.238,1062.604,2334.238z"/>
			<polygon style="fill:#1D1D1B;" points="1103.319,2339.556 1103.319,2360.392 1076.974,2356.943 1076.974,2336.107 			"/>
		</g>
		<g>
			<path style="fill:#1D1D1B;" d="M1062.604,2479.637v20.669c0,0-27.782-1.366-28.524-1.581v-19.831
				C1035.111,2478.583,1062.604,2479.637,1062.604,2479.637z"/>
			<polygon style="fill:#1D1D1B;" points="1103.319,2481.48 1103.319,2502.15 1076.974,2500.952 1076.974,2480.283 			"/>
		</g>
	</g>
	<g>
		<path style="fill:#1D1D1B;" d="M1284.737,2377.015v20.285c-0.144,0.025-44.435-9.292-44.77-9.411v-21.827
			C1241.644,2365.487,1284.737,2377.015,1284.737,2377.015z"/>
		<path style="fill:#1D1D1B;" d="M1282.543,2494.32v20.668c0,0-41.785-2.682-42.576-2.97v-19.637
			C1241.165,2491.997,1282.543,2494.32,1282.543,2494.32z"/>
	</g>
	<g>
		<g>
			<path style="fill:#1D1D1B;" d="M1062.604,2181.039v21.41l-28.524-7.904l0,0v-20.877
				C1035.828,2173.165,1062.604,2181.039,1062.604,2181.039z"/>
			<polygon style="fill:#1D1D1B;" points="1103.319,2192.246 1103.319,2213.658 1076.974,2206.4 1076.974,2184.99 			"/>
		</g>
		<g>
			<g>
				<path style="fill:#1D1D1B;" d="M1062.604,2109.018v21.555l-28.524-8.599v-21.752
					C1035.901,2099.718,1062.604,2109.018,1062.604,2109.018z"/>
				<polygon style="fill:#1D1D1B;" points="1103.319,2121.231 1103.319,2142.763 1076.974,2134.858 1076.974,2113.328 				"/>
			</g>
			<g>
				<path style="fill:#1D1D1B;" d="M1062.604,2256.882v21.076l-28.524-5.724c-0.239-0.048,0.24-0.096,0-0.168v-22.272
					C1035.613,2249.361,1062.604,2256.882,1062.604,2256.882z"/>
				<polygon style="fill:#1D1D1B;" points="1103.319,2265.168 1103.319,2286.244 1076.974,2280.879 1076.974,2259.805 				"/>
			</g>
		</g>
	</g>
	<g>
		<path style="fill:#1D1D1B;" d="M1062.604,2405.47v20.741c0,0-27.949-2.586-28.524-2.755v-19.853
			C1035.254,2403.267,1062.604,2405.47,1062.604,2405.47z"/>
		<polygon style="fill:#1D1D1B;" points="1103.319,2409.158 1103.319,2429.875 1076.974,2427.504 1076.974,2406.764 		"/>
	</g>
	<g>
		<g>
			<path style="fill:#1D1D1B;" d="M897.352,2407.291v20.692c0,0-34.272,2.324-35.279,1.987v-19.614
				C862.84,2410.092,897.352,2407.291,897.352,2407.291z"/>
			<path style="fill:#1D1D1B;" d="M952.358,2403.051v20.668l-40.636,3.161v-20.692L952.358,2403.051
				C952.43,2403.051,952.286,2403.027,952.358,2403.051z"/>
		</g>
		<g>
			<g>
				<path style="fill:#1D1D1B;" d="M897.352,2337.185v20.859c0,0-35.126,4.426-35.279,3.88v-19.614
					C862.648,2342.118,897.352,2337.185,897.352,2337.185z"/>
				<path style="fill:#1D1D1B;" d="M952.358,2329.64v20.789l-40.636,5.628v-20.836l40.636-5.509
					C952.645,2329.664,952.071,2329.64,952.358,2329.64z"/>
			</g>
			<g>
				<path style="fill:#1D1D1B;" d="M862.074,2481.337l35.279-1.341v22.249l-35.279,1.629l0,0c-1.126,0,1.006-0.239,0-0.646v-21.315
					C862.96,2481.576,861.091,2481.385,862.074,2481.337z"/>
				<polygon style="fill:#1D1D1B;" points="952.358,2477.744 952.358,2499.468 911.722,2501.527 911.722,2479.396 				"/>
			</g>
		</g>
	</g>
</g>
<g>
	<path style="fill:#1D1D1B;" d="M6174.602,1365.824L6174.602,1365.824V813.479c0-6.306-4.162-12.611-10.492-12.611h-153.22
		c-2.673,0-5.095,1.537-7.161,3.226l-59.877,50.596c-2.598,2.17-3.807,5.396-3.807,8.775v67.039h-180.357
		c-1.867,0.024-3.733,0.505-5.398,1.414l-67.971,37.048c-3.656,1.993-5.885,5.852-5.885,10.015v386.843H5650v22.699h570v-22.699
		H6174.602z M5703.973,985.764l44.39-24.691v404.751h-44.39V985.764z M5940.045,1365.824h-168.983V953.255h168.983V1365.824z
		 M6000.575,1365.824h-37.831V868.84l37.831-30.923V1365.824z M6151.902,1365.824h-128.628V826.089h128.628V1365.824
		L6151.902,1365.824z"/>
	<rect x="6098.938" y="871.487" style="fill:#1D1D1B;" width="22.699" height="30.266"/>
	<rect x="6098.938" y="924.453" style="fill:#1D1D1B;" width="22.699" height="30.265"/>
	<rect x="6098.938" y="977.417" style="fill:#1D1D1B;" width="22.699" height="30.266"/>
	<rect x="6098.938" y="1083.346" style="fill:#1D1D1B;" width="22.699" height="30.267"/>
	<rect x="6098.938" y="1136.311" style="fill:#1D1D1B;" width="22.699" height="30.266"/>
	<rect x="6098.938" y="1189.275" style="fill:#1D1D1B;" width="22.699" height="32.787"/>
	<rect x="6045.973" y="871.487" style="fill:#1D1D1B;" width="22.699" height="30.266"/>
	<rect x="6045.973" y="924.453" style="fill:#1D1D1B;" width="22.699" height="30.265"/>
	<rect x="6045.973" y="977.417" style="fill:#1D1D1B;" width="22.699" height="30.266"/>
	<rect x="6045.973" y="1030.381" style="fill:#1D1D1B;" width="22.699" height="30.266"/>
	<rect x="6045.973" y="1136.311" style="fill:#1D1D1B;" width="22.699" height="30.266"/>
	<rect x="6045.973" y="1189.275" style="fill:#1D1D1B;" width="22.699" height="32.787"/>
	<rect x="6045.973" y="1244.763" style="fill:#1D1D1B;" width="22.699" height="30.265"/>
	<g>
		<rect x="5793.762" y="984.983" style="fill:#1D1D1B;" width="22.699" height="30.266"/>
		<rect x="5793.762" y="1037.948" style="fill:#1D1D1B;" width="22.699" height="30.266"/>
		<rect x="5793.762" y="1090.913" style="fill:#1D1D1B;" width="22.699" height="30.265"/>
		<rect x="5793.762" y="1174.143" style="fill:#1D1D1B;" width="22.699" height="32.788"/>
		<rect x="5793.762" y="1229.629" style="fill:#1D1D1B;" width="22.699" height="30.266"/>
		<rect x="5793.762" y="1282.594" style="fill:#1D1D1B;" width="22.699" height="30.265"/>
		<rect x="5894.646" y="984.983" style="fill:#1D1D1B;" width="22.7" height="30.266"/>
		<rect x="5894.646" y="1282.594" style="fill:#1D1D1B;" width="22.7" height="30.265"/>
	</g>
	<rect x="5839.159" y="984.983" style="fill:#1D1D1B;" width="25.222" height="30.266"/>
	<rect x="5839.159" y="1037.948" style="fill:#1D1D1B;" width="25.222" height="30.266"/>
	<rect x="5839.159" y="1229.629" style="fill:#1D1D1B;" width="25.222" height="30.266"/>
	<rect x="5839.159" y="1282.594" style="fill:#1D1D1B;" width="25.222" height="30.265"/>
</g>
<g>
	<g>
		<path style="fill:#1D1D1B;" d="M4824.525,1213.53v115.155c0,5.917-4.906,10.679-10.822,10.679
			c-5.917,0-10.822-4.762-10.822-10.679v-111.788l-56.088-80.352c-3.392-4.835-2.162-11.497,2.67-14.888
			c4.857-3.368,11.545-2.188,14.936,2.645l16.836,24.051v-108.132l-61.449-74.725c-3.752-4.546-2.982-11.28,1.563-15.032
			c4.547-3.775,11.23-3.127,14.984,1.419l8.826,10.703V856.571l-40.886-13.901v131.172c0,1.178-21.646,64.311-21.646,64.311v60.848
			l16.354-26.335c3.103-5.003,9.668-6.542,14.696-3.439c5.026,3.127,6.757,9.717,3.632,14.743l-56.328,90.936v153.78
			c0,5.917-4.905,10.679-10.822,10.679c-5.916,0-10.822-4.762-10.822-10.679v-156.833c0-1.997,0.48-3.945,1.539-5.654l21.537-36.99
			c-1.779-1.899,0-92.834,0-92.834c0-1.179,20.215-64.313,20.215-64.313V827.951c0-8.032,7.137-12.243,13.492-10.173l63.709,20.852
			c4.402,1.419,6.976,5.532,6.976,10.173v139.999l36.077,43.725v146.757l19.672,28.115
			C4823.828,1209.202,4824.525,1211.343,4824.525,1213.53z"/>
	</g>
	<path style="fill:#1D1D1B;" d="M4920.729,1339.376c-5.905,0-9.621-4.786-9.621-10.691v-235.536h-86.619
		c-5.908,0-10.691-3.714-10.691-9.621c0-5.906,4.783-9.62,10.691-9.62h96.214c5.904,0,9.646,2.988,9.646,8.894v245.882
		C4930.349,1334.59,4926.633,1339.376,4920.729,1339.376z"/>
	<path style="fill:#1D1D1B;" d="M4977.247,1339.376c-5.905,0-10.823-4.786-10.823-10.691V1122.01h-13.65
		c-5.904,0-10.691-4.917-10.691-10.823c0-5.905,4.787-10.823,10.691-10.823h24.945c5.905,0,10.352,5.041,10.352,10.946v217.375
		C4988.07,1334.59,4983.152,1339.376,4977.247,1339.376z"/>
	<path style="fill:#1D1D1B;" d="M4549.146,1339.376c-5.906,0-10.823-4.786-10.823-10.691V983.024
		c0-5.906,5.867-10.128,11.773-10.128h85.524c5.905,0,10.931,4.222,10.931,10.128V1122c0,5.906-4.918,10.692-10.822,10.692
		c-5.907,0-10.823-4.786-10.823-10.692V994.542h-64.937v334.143C4559.969,1334.59,4555.051,1339.376,4549.146,1339.376z"/>
	<g>
		<rect x="4574.398" y="1025.808" style="fill:#1D1D1B;" width="31.266" height="28.86"/>
		<rect x="4574.398" y="1165.301" style="fill:#1D1D1B;" width="31.266" height="31.266"/>
	</g>
	<rect x="4574.398" y="1095.554" style="fill:#1D1D1B;" width="31.266" height="31.266"/>
	<rect x="4574.398" y="1235.048" style="fill:#1D1D1B;" width="31.266" height="28.861"/>
	<path style="fill:#1D1D1B;" d="M4464.969,1339.376c-5.906,0-10.822-4.786-10.822-10.691v-267.264c0-5.905,4.52-9.157,10.425-9.157
		h53.453c5.905,0,10.692,4.917,10.692,10.822c0,5.906-4.787,10.823-10.692,10.823h-42.233v254.776
		C4475.791,1334.59,4470.874,1339.376,4464.969,1339.376z"/>
	<g>
		<g>
			<rect x="4487.816" y="1165.301" style="fill:#1D1D1B;" width="31.266" height="28.86"/>
			<rect x="4487.816" y="1292.77" style="fill:#1D1D1B;" width="31.266" height="28.86"/>
		</g>
		<g>
			<rect x="4487.816" y="1230.238" style="fill:#1D1D1B;" width="31.266" height="28.861"/>
			<g>
				<rect x="4487.816" y="1100.364" style="fill:#1D1D1B;" width="31.266" height="28.86"/>
			</g>
		</g>
	</g>
	<g>
		<rect x="4853.387" y="1249.479" style="fill:#1D1D1B;" width="31.266" height="26.456"/>
		<rect x="4853.387" y="1119.605" style="fill:#1D1D1B;" width="31.266" height="28.861"/>
	</g>
	<rect x="4853.387" y="1182.136" style="fill:#1D1D1B;" width="31.266" height="28.861"/>
	<rect x="4432.5" y="1350.491" style="fill:#1D1D1B;" width="570" height="21.646"/>
</g>
<g>
	<path style="fill:#1D1E1C;" d="M3778.757,1012.534l-271.851-194.179c-4.22-2.947-9.79-2.947-13.929,0l-272.966,194.977
		c-8.842,6.336-5.643,19.388,6.922,19.388h545.935c0.08,0,0.16,0,0.16,0C3785.575,1032.721,3789.512,1018.256,3778.757,1012.534z
		 M3264.18,1011.585l235.722-168.396l235.724,168.396H3264.18z"/>
	<g>
		<rect x="3397.817" y="1060.902" style="fill:#1D1E1C;" width="21.136" height="253.633"/>
		<rect x="3585.693" y="1060.902" style="fill:#1D1E1C;" width="21.136" height="253.633"/>
		<rect x="3679.631" y="1060.902" style="fill:#1D1E1C;" width="21.137" height="253.633"/>
		<rect x="3296.834" y="1060.902" style="fill:#1D1E1C;" width="21.136" height="253.633"/>
		<rect x="3491.755" y="1060.902" style="fill:#1D1E1C;" width="21.137" height="253.633"/>
	</g>
	<path style="fill:#1D1E1C;" d="M3754.039,1373.246h-509.328c-6.59,0-11.937-3.975-11.937-10.568s5.347-10.568,11.937-10.568
		h509.328c6.588,0,11.937,3.975,11.937,10.568S3760.627,1373.246,3754.039,1373.246z"/>
	<path style="fill:#1D1E1C;" d="M3499.975,899.928c-21.885,0-39.79,17.825-39.79,39.791c0,21.884,17.905,39.79,39.79,39.79
		c21.965,0,39.791-17.907,39.791-39.79C3539.766,917.752,3521.939,899.928,3499.975,899.928z M3499.975,955.635
		c-8.753,0-15.916-7.162-15.916-15.916c0-8.835,7.163-15.916,15.916-15.916c8.834,0,15.917,7.082,15.917,15.916
		C3515.892,948.473,3508.809,955.635,3499.975,955.635z"/>
</g>
<g>
	<path style="fill:#1D1E1C;" d="M2115.832,1317.282v-215.405c0-6.085-5.573-11.016-11.656-11.016
		c-6.083,0-11.655,4.93-11.655,11.016v227.06c0,6.083,4.931,11.656,11.016,11.656h359.318l0.146-0.178
		c5.349-0.847,9.479-5.925,9.479-11.481v-227.057c0-6.085-4.407-11.016-10.49-11.016c-6.082,0-10.489,4.93-10.489,11.016v215.405
		H2115.832z"/>
	<path style="fill:#1D1E1C;" d="M2000.154,1103.565c-3.96-4.622-3.428-11.574,1.198-15.533l276.157-236.583
		c4.138-3.557,10.269-3.531,14.393,0.058l271.812,236.582c4.588,3.996,5.076,10.952,1.083,15.542
		c-3.995,4.586-10.945,5.081-15.541,1.076l-264.641-230.336l-268.937,230.393
		C2011.067,1108.723,2004.097,1108.183,2000.154,1103.565z"/>
	<path style="fill:#1D1E1C;" d="M2348.593,1065.159v161.558c0,6.094-4.921,11.015-11.017,11.015
		c-6.091,0-11.013-4.921-11.013-11.015v-66.092h-88.124v66.092c0,6.094-4.917,11.015-11.014,11.015
		c-6.096,0-11.017-4.921-11.017-11.015v-161.558c0-6.096,4.921-11.015,11.017-11.015c6.097,0,11.014,4.919,11.014,11.015v73.435
		h88.124v-73.435c0-6.096,4.922-11.015,11.013-11.015C2343.671,1054.144,2348.593,1059.063,2348.593,1065.159z"/>
</g>
<g>
	<path style="fill:#1D1D1B;" d="M1190.239,1332.291H941.778c-6.052,0-10.961-5.024-10.961-11.08s4.91-11.08,10.961-11.08h248.461
		c6.052,0,10.962,5.024,10.962,11.08S1196.291,1332.291,1190.239,1332.291z"/>
	<path style="fill:#1D1D1B;" d="M1234.085,1376.608H897.932c-6.052,0-10.961-5.024-10.961-11.079c0-6.056,4.91-11.08,10.961-11.08
		h336.154c6.052,0,10.962,5.024,10.962,11.08C1245.047,1371.584,1240.138,1376.608,1234.085,1376.608z"/>
	<path style="fill:#1D1D1B;" d="M1321.573,1268.253h-15.419v-175.385h14.616c6.066,0,10.962-4.895,10.962-10.961
		c0-6.065-4.895-10.96-10.962-10.96H809.23c-6.066,0-10.962,4.896-10.962,10.96c0,6.066,4.895,10.961,10.962,10.961h14.616v175.385
		h-12.058L780,1316.704v53.858c0,6.065,4.896,10.962,10.961,10.962c6.064,0,10.962-4.897,10.962-10.962v-47.354l21.702-33.03
		h484.501l19.95,38.95v41.434c0,6.065,4.898,10.962,10.962,10.962c6.066,0,10.961-4.897,10.961-10.962v-46.77L1321.573,1268.253z
		 M867.691,1268.253h-21.923v-175.385h21.923V1268.253z M918.845,1268.253h-29.231v-175.385h29.231V1268.253z M969.999,1268.253
		h-29.23v-175.385h29.23V1268.253z M1099.054,1268.253h-55.684v-89.373c0-16.369,12.277-29.669,27.476-29.669h0.731
		c15.128,0,27.478,13.3,27.478,29.669V1268.253z M1138.077,1268.253h-17.099v-89.373c0-28.5-22.143-51.593-49.401-51.593h-0.731
		c-27.256,0-49.399,23.093-49.399,51.593v89.373h-29.523v-175.385h146.154V1268.253z M1189.231,1268.253h-29.23v-175.385h29.23
		V1268.253z M1240.385,1268.253h-29.23v-175.385h29.23V1268.253z M1284.232,1268.253h-21.923v-175.385h21.923V1268.253z"/>
	<g>
		<path style="fill:#1D1D1B;" d="M1317.935,1039.298H813.703c-6.052,0-10.962-3.792-10.962-9.848c0-6.056,4.91-9.849,10.962-9.849
			h504.232c6.052,0,10.962,3.793,10.962,9.849C1328.896,1035.505,1323.987,1039.298,1317.935,1039.298z"/>
		<path style="fill:#1D1D1B;" d="M1295.485,982.668l-219.634-71.908v-22.507h73.188v-66.89h-73.078
			c0-7.162-4.895-13.495-10.961-13.495s-10.632,6.333-10.632,13.495v89.397l-215.104,71.908c-5.699,1.901-8.841,8.112-6.942,13.813
			c1.9,5.773,8.038,8.915,13.811,7.015l221.278-73.149l221.204,73.149c5.788,1.811,11.969-1.271,13.886-7.015
			C1304.4,990.78,1301.258,984.569,1295.485,982.668z M1075.961,844.407h51.154v21.923h-51.154V844.407z"/>
	</g>
</g>
</svg>
