<svg id="Layer_1" height="512" viewBox="0 0 80 80" width="512" xmlns="http://www.w3.org/2000/svg" data-name="Layer 1"><path d="m43.093 16.8h-2.317a.5.5 0 0 1 0-1h2.317a.5.5 0 1 1 0 1z"/><path d="m32.623 16.8h-2.316a.5.5 0 0 1 0-1h2.316a.5.5 0 1 1 0 1z"/><path d="m22.153 16.8h-2.316a.5.5 0 0 1 0-1h2.316a.5.5 0 1 1 0 1z"/><path d="m43.093 23.9h-2.317a.5.5 0 0 1 0-1h2.317a.5.5 0 0 1 0 1z"/><path d="m32.623 23.9h-2.316a.5.5 0 1 1 0-1h2.316a.5.5 0 0 1 0 1z"/><path d="m22.153 23.9h-2.316a.5.5 0 1 1 0-1h2.316a.5.5 0 0 1 0 1z"/><path d="m71.5 72h-63a.5.5 0 0 1 0-1h63a.5.5 0 0 1 0 1z"/><path d="m12.243 36.183a.5.5 0 0 1 -.5-.5v-2.7a.5.5 0 0 1 1 0v2.7a.5.5 0 0 1 -.5.5z"/><path d="m12.243 72a.5.5 0 0 1 -.5-.5v-20.095a.5.5 0 0 1 1 0v20.095a.5.5 0 0 1 -.5.5z"/><path d="m50.691 72a.5.5 0 0 1 -.5-.5v-62.5h-37.448v17.5a.5.5 0 0 1 -1 0v-18a.5.5 0 0 1 .5-.5h38.446a.5.5 0 0 1 .5.5v63a.5.5 0 0 1 -.498.5z"/><path d="m12.243 45.42a.5.5 0 0 1 -.5-.5v-2.752a.5.5 0 0 1 1 0v2.752a.5.5 0 0 1 -.5.5z"/><path d="m67.76 72a.5.5 0 0 1 -.5-.5v-35.7l-16.83-10.2a.5.5 0 1 1 .518-.855l17.071 10.355a.5.5 0 0 1 .241.427v35.973a.5.5 0 0 1 -.5.5z"/><path d="m39.139 72a.5.5 0 0 1 -.5-.5v-18.254h-15.12v18.254a.5.5 0 0 1 -1 0v-18.754a.5.5 0 0 1 .5-.5h16.12a.5.5 0 0 1 .5.5v18.754a.5.5 0 0 1 -.5.5z"/><path d="m43.093 31h-2.317a.5.5 0 0 1 0-1h2.317a.5.5 0 0 1 0 1z"/><path d="m32.623 31h-2.316a.5.5 0 0 1 0-1h2.316a.5.5 0 0 1 0 1z"/><path d="m22.153 31h-2.316a.5.5 0 0 1 0-1h2.316a.5.5 0 0 1 0 1z"/><path d="m43.093 38.106h-2.317a.5.5 0 0 1 0-1h2.317a.5.5 0 0 1 0 1z"/><path d="m32.623 38.106h-2.316a.5.5 0 1 1 0-1h2.316a.5.5 0 0 1 0 1z"/><path d="m22.153 38.106h-2.316a.5.5 0 1 1 0-1h2.316a.5.5 0 0 1 0 1z"/><path d="m43.093 45.21h-2.317a.5.5 0 0 1 0-1h2.317a.5.5 0 0 1 0 1z"/><path d="m32.623 45.21h-2.316a.5.5 0 1 1 0-1h2.316a.5.5 0 0 1 0 1z"/><path d="m22.153 45.21h-2.316a.5.5 0 1 1 0-1h2.316a.5.5 0 0 1 0 1z"/><path d="m56.4 39.7h-5.711a.5.5 0 0 1 0-1h5.711a.5.5 0 0 1 0 1z"/><path d="m56.4 47.919h-5.711a.5.5 0 0 1 0-1h5.711a.5.5 0 0 1 0 1z"/><path d="m56.4 56.138h-5.711a.5.5 0 0 1 0-1h5.711a.5.5 0 0 1 0 1z"/><path d="m56.4 64.356h-5.711a.5.5 0 1 1 0-1h5.711a.5.5 0 1 1 0 1z"/></svg>