<svg id="Layer_1" enable-background="new 0 0 24 24" height="24" viewBox="0 0 24 24" width="24" xmlns="http://www.w3.org/2000/svg"><g><g><path d="m18.6 22.2h-13.5c-.2 0-.4-.2-.4-.4v-15.7c0-.1.1-.3.2-.4l6.8-3.9c.1-.1.3-.1.4 0l6.7 3.9c.2.1.2.2.2.4v15.7c0 .2-.2.4-.4.4zm-13.1-.9h12.7v-15l-6.3-3.7-6.4 3.7z"/></g><g><g><path d="m7.6 7.7h1.2v1.2h-1.2z"/><path d="m8.8 9.4h-1.2c-.2 0-.4-.2-.4-.4v-1.3c0-.2.2-.4.4-.4h1.2c.2 0 .4.2.4.4v1.2c0 .3-.1.5-.4.5zm-.8-.9h.4v-.4h-.4z"/></g><g><path d="m11.2 7.7h1.2v1.2h-1.2z"/><path d="m12.5 9.4h-1.2c-.2 0-.4-.2-.4-.4v-1.3c0-.2.2-.4.4-.4h1.2c.2 0 .4.2.4.4v1.2c0 .3-.2.5-.4.5zm-.8-.9h.4v-.4h-.4z"/></g><g><path d="m14.9 7.7h1.2v1.2h-1.2z"/><path d="m16.1 9.4h-1.2c-.2 0-.4-.2-.4-.4v-1.3c0-.2.2-.4.4-.4h1.2c.2 0 .4.2.4.4v1.2c.1.3-.1.5-.4.5zm-.8-.9h.4v-.4h-.4z"/></g></g><g><g><path d="m7.6 11.4h1.2v1.2h-1.2z"/><path d="m8.8 13.1h-1.2c-.2 0-.4-.2-.4-.4v-1.2c0-.2.2-.4.4-.4h1.2c.2 0 .4.2.4.4v1.2c0 .2-.1.4-.4.4zm-.8-.9h.4v-.4h-.4z"/></g><g><path d="m11.2 11.4h1.2v1.2h-1.2z"/><path d="m12.5 13.1h-1.2c-.2 0-.4-.2-.4-.4v-1.2c0-.2.2-.4.4-.4h1.2c.2 0 .4.2.4.4v1.2c0 .2-.2.4-.4.4zm-.8-.9h.4v-.4h-.4z"/></g><g><path d="m14.9 11.4h1.2v1.2h-1.2z"/><path d="m16.1 13.1h-1.2c-.2 0-.4-.2-.4-.4v-1.2c0-.2.2-.4.4-.4h1.2c.2 0 .4.2.4.4v1.2c.1.2-.1.4-.4.4zm-.8-.9h.4v-.4h-.4z"/></g></g><g><g><path d="m7.6 15.1h1.2v1.2h-1.2z"/><path d="m8.8 16.8h-1.2c-.2 0-.4-.2-.4-.4v-1.2c0-.2.2-.4.4-.4h1.2c.2 0 .4.2.4.4v1.2c0 .2-.1.4-.4.4zm-.8-.9h.4v-.4h-.4z"/></g><g><path d="m11.2 15.1h1.2v1.2h-1.2z"/><path d="m12.5 16.8h-1.2c-.2 0-.4-.2-.4-.4v-1.2c0-.2.2-.4.4-.4h1.2c.2 0 .4.2.4.4v1.2c0 .2-.2.4-.4.4zm-.8-.9h.4v-.4h-.4z"/></g><g><path d="m14.9 15.1h1.2v1.2h-1.2z"/><path d="m16.1 16.8h-1.2c-.2 0-.4-.2-.4-.4v-1.2c0-.2.2-.4.4-.4h1.2c.2 0 .4.2.4.4v1.2c.1.2-.1.4-.4.4zm-.8-.9h.4v-.4h-.4z"/></g></g><g><path d="m14.5 22.2h-5.3c-.2 0-.4-.2-.4-.4v-3.3c0-.3.2-.5.4-.5h5.3c.2 0 .4.2.4.4v3.3c0 .3-.1.5-.4.5zm-4.9-.9h4.5v-2.5h-4.5z"/></g><g><path d="m11.9 22c-.2 0-.4-.2-.4-.4v-2.9c0-.2.2-.4.4-.4s.4.2.4.4v2.9c0 .2-.2.4-.4.4z"/></g></g></svg>