<svg width="968" height="276" viewBox="0 0 968 276" fill="none" xmlns="http://www.w3.org/2000/svg">
<path d="M160.096 24.7658L182.789 12.3829L205.483 0L210.435 2.60841C213.158 4.04194 223.743 9.70441 233.954 15.1892L252.522 25.1632L252.49 50.1657L252.461 75.1684L230.399 87.1851C218.265 93.7951 207.665 99.4045 206.847 99.6508C206.028 99.8968 195.174 94.5321 182.727 87.726L160.096 75.3525V50.0598V24.7658Z" fill="white"/>
<path d="M52.8149 24.8924L74.6839 13.0735C86.7122 6.57275 97.5592 1.23128 98.7904 1.20324C100.022 1.17519 110.976 6.49173 123.135 13.0174L145.241 24.883L145.218 50.0245L145.195 75.1656L123.184 87.2416C111.08 93.8842 100.203 99.3177 99.0149 99.3177C97.8265 99.3177 86.9466 93.9044 74.8355 87.2886L52.8149 75.2591V50.076V24.8924Z" fill="white"/>
<path d="M0 112.205L22.694 99.9033L45.3881 87.6016L68.8594 100.084L92.3307 112.568L92.3785 137.542L92.4263 162.516L69.0258 175.234C49.0998 186.065 45.117 187.703 42.2056 186.264C40.3242 185.336 30.0583 179.718 19.393 173.782L0 162.988V137.598V112.205Z" fill="white"/>
<path d="M105.723 112.566L129.159 100.08L152.596 87.5938L175.326 99.9066L198.056 112.218V137.602V162.985L178.663 173.779C167.996 179.716 157.732 185.333 155.851 186.261C152.939 187.7 148.957 186.062 129.03 175.231L105.63 162.513L105.676 137.539L105.723 112.566Z" fill="white"/>
<path d="M52.8462 199.82L74.6987 187.878C86.7188 181.31 97.6666 175.93 99.028 175.922C100.39 175.914 111.159 181.31 122.96 187.912L144.416 199.915L144.868 225.048L145.322 250.182L122.197 262.838L99.0725 275.492L76.3575 263.163L53.6404 250.833L53.2425 225.327L52.8462 199.82Z" fill="white"/>
<path fill-rule="evenodd" clip-rule="evenodd" d="M462.189 113.365C450.565 116.939 439.068 125.151 433.483 133.87C423.716 149.123 426.25 173.202 438.866 184.978C446.862 192.441 458.795 196.562 480.165 199.236C499.154 201.613 505.967 204.754 506.82 211.53C507.685 218.364 500.769 222.765 487.757 223.66C474.378 224.579 465.077 221.575 462.144 215.385C460.245 211.386 459.915 211.319 442.059 211.319H423.906L424.997 216.895L426.085 222.47H398.657H371.231V209.726V196.982H396.096H420.961V181.053V165.122H396.096H371.231V154.768V144.414H399.412H427.592V128.484V112.554H381.195H334.796L334.365 180.264L333.933 247.974L320.136 226.249L306.34 204.522L312.175 198.76C329.059 182.093 331.854 153.119 318.412 134.099C312.935 126.349 301.956 118.109 293.692 115.544C289.918 114.373 272.539 113.37 248.976 112.963L210.435 112.297V183.313V254.33H229.498H248.561V232.825V211.319L258.093 211.35L267.625 211.38L280.283 232.457L292.939 253.533L360.199 253.949L427.456 254.365L427.938 241.387L428.42 228.409L432.577 234.599C447.982 257.562 494.273 263.697 522.428 246.505C531.832 240.764 539.876 230.572 541.236 222.68C543.032 212.251 543.567 212.197 549.499 221.835C552.679 227.004 558.071 233.629 561.477 236.559C585.467 257.201 627.272 260.245 654.953 243.367C664.336 237.645 675.314 224.071 679.029 213.6C681.649 206.209 681.843 206.04 683.42 209.788C691.547 229.099 702.517 240.63 720.81 249.092C731.067 253.84 735.35 254.88 747.333 255.536C780.612 257.357 806.418 244.348 820.366 218.723L825.44 209.403V231.866V254.33H844.504H863.567V222.314V190.298L879.484 206.384C888.237 215.232 896.224 222.47 897.225 222.47C898.234 222.47 905.953 215.482 914.381 206.938L929.708 191.407L929.791 222.869L929.873 254.33H948.937H968V183.442V112.554H961.533C955.255 112.554 954.242 113.425 926.31 142.818C910.488 159.461 897.171 173.081 896.714 173.084C896.257 173.086 883.24 159.467 867.798 142.821L839.713 112.554H832.575H825.44V135.018V157.481L820.366 148.16C807.551 124.616 783.244 110.961 754.158 110.961C724.076 110.961 699.431 125.204 687.086 149.726L681.587 160.659L679.503 154.527C676.393 145.374 667.669 133.043 659.616 126.419C646.443 115.585 622.465 109.478 603.768 112.196C565.143 117.806 541.783 141.365 539.139 177.368L538.167 190.582L531.234 184.442C522.918 177.075 513.493 173.858 491.414 170.853C466.481 167.456 461.728 164.904 462.704 155.427C463.458 148.1 469.97 143.963 481.858 143.255C492.926 142.598 498.705 144.901 501.865 151.23C504.015 155.539 504.126 155.565 521.418 155.565H538.809L537.693 149.591C534.822 134.185 525.715 123.256 510.082 116.453C497.367 110.921 474.851 109.47 462.189 113.365ZM284.273 148.05C289.638 152.485 291.585 163.981 288.273 171.663C285.333 178.486 278.117 181.053 261.876 181.053H248.561V162.733V144.414H264.217C278.13 144.414 280.363 144.818 284.273 148.05ZM628.763 146.606C634.415 148.874 644.75 159.536 644.75 163.096C644.75 164.611 649.252 165.122 662.569 165.121L680.389 165.119V182.642V200.164L663.43 200.167L646.476 200.168L643.094 206.538C631.202 228.941 594.554 226.725 581.315 202.801C576.125 193.422 576.063 171.961 581.204 162.733C588.182 150.198 598.195 144.578 613.72 144.476C618.993 144.442 625.765 145.4 628.763 146.606ZM770.989 149.374C778.499 152.985 786.852 162.513 788.994 169.901C791.42 178.281 790.955 193.145 788.055 199.821C778.321 222.255 748.33 228.872 729.996 212.632C720.184 203.94 717.037 195.429 718.046 180.318C718.672 170.965 719.772 167.047 723.174 162.112C734.238 146.045 753.434 140.931 770.989 149.374Z" fill="white"/>
</svg>
