<svg width="235" height="67" viewBox="0 0 235 67" fill="none" xmlns="http://www.w3.org/2000/svg">
<path d="M38.8662 6.01199L44.3755 3.006L49.8849 0L51.087 0.6332C51.7481 0.981195 54.3177 2.35578 56.7967 3.68724L61.3043 6.10845L61.2967 12.1779L61.2895 18.2474L55.9336 21.1645C52.9878 22.7691 50.4146 24.1308 50.2159 24.1906C50.0171 24.2503 47.3822 22.948 44.3603 21.2958L38.8662 18.2921V12.1522V6.01199Z" fill="#00A8E1"/>
<path d="M12.8218 6.04339L18.1309 3.17432C21.051 1.59624 23.6843 0.299578 23.9832 0.29277C24.2821 0.285961 26.9415 1.57657 29.8933 3.1607L35.26 6.04112L35.2544 12.1443L35.2488 18.2474L29.9053 21.1789C26.9667 22.7914 24.3262 24.1104 24.0377 24.1104C23.7492 24.1104 21.1079 22.7963 18.1677 21.1903L12.8218 18.2701V12.1568V6.04339Z" fill="#00A8E1"/>
<path d="M0 27.2374L5.50938 24.2511L11.0188 21.2648L16.7169 24.295L22.415 27.3256L22.4266 33.3879L22.4382 39.4505L16.7573 42.5379C11.9199 45.1671 10.953 45.5647 10.2462 45.2155C9.78946 44.9901 7.29722 43.6265 4.70801 42.1853L0 39.5652V33.4015V27.2374Z" fill="#00A8E1"/>
<path d="M25.6661 27.3256L31.3558 24.2946L37.0455 21.2636L42.5636 24.2526L48.0818 27.2412V33.4034V39.5652L43.3738 42.1853C40.7842 43.6265 38.2924 44.9901 37.8356 45.2155C37.1288 45.5647 36.162 45.1671 31.3245 42.5379L25.6436 39.4505L25.6549 33.3879L25.6661 27.3256Z" fill="#00A8E1"/>
<path d="M12.8294 48.5079L18.1345 45.6089C21.0526 44.0146 23.7104 42.7085 24.0409 42.7066C24.3715 42.7047 26.9859 44.0146 29.8508 45.6172L35.0597 48.5309L35.1695 54.6322L35.2797 60.7335L29.6657 63.8057L24.0517 66.8775L18.5372 63.8847L13.0222 60.8916L12.9256 54.6999L12.8294 48.5079Z" fill="#00A8E1"/>
<path fill-rule="evenodd" clip-rule="evenodd" d="M112.205 27.5203C109.383 28.3881 106.592 30.3815 105.236 32.498C102.865 36.2007 103.48 42.0461 106.543 44.9046C108.484 46.7163 111.381 47.7167 116.569 48.366C121.179 48.943 122.833 49.7055 123.04 51.3502C123.25 53.0092 121.571 54.0776 118.412 54.2949C115.164 54.5181 112.906 53.7887 112.194 52.286C111.733 51.3154 111.653 51.2991 107.318 51.2991H102.911L103.176 52.6526L103.44 54.0061H96.7815H90.1232V50.9124V47.8188H96.1597H102.196V43.9518V40.0847H96.1597H90.1232V37.5711V35.0576H96.9646H103.806V31.1905V27.3235H92.5422H81.278L81.1734 43.7603L81.0684 60.1972L77.7189 54.9233L74.3698 49.6491L75.7864 48.2504C79.8852 44.2043 80.5637 37.1709 77.3004 32.5536C75.9707 30.6723 73.3054 28.6719 71.2992 28.0493C70.3829 27.7651 66.1638 27.5215 60.4435 27.4229L51.0869 27.2612V44.5005V61.7402H55.7149H60.3429V56.5197V51.2991L62.6569 51.3065L64.9709 51.3138L68.0439 56.4303L71.1165 61.5468L87.445 61.6477L103.773 61.7487L103.89 58.5982L104.007 55.4477L105.016 56.9504C108.756 62.5248 119.994 64.014 126.829 59.8407C129.112 58.447 131.065 55.9729 131.395 54.0571C131.831 51.5254 131.961 51.5122 133.401 53.8518C134.173 55.1066 135.482 56.7149 136.309 57.4261C142.133 62.437 152.282 63.176 159.002 59.0789C161.28 57.6898 163.945 54.3947 164.847 51.8529C165.483 50.0586 165.53 50.0176 165.913 50.9275C167.886 55.6152 170.549 58.4145 174.99 60.4687C177.48 61.6211 178.52 61.8736 181.429 62.0329C189.508 62.4749 195.773 59.3171 199.159 53.0965L200.391 50.8339V56.2869V61.7402H205.019H209.647V53.9682V46.1962L213.511 50.1011C215.636 52.2489 217.575 54.0061 217.818 54.0061C218.063 54.0061 219.937 52.3096 221.983 50.2357L225.704 46.4653L225.724 54.1028L225.744 61.7402H230.372H235V44.5318V27.3235H233.43C231.906 27.3235 231.66 27.535 224.879 34.6701C221.038 38.7104 217.805 42.0167 217.694 42.0175C217.583 42.0179 214.423 38.7119 210.674 34.6709L203.856 27.3235H202.123H200.391V32.7768V38.2297L199.159 35.9671C196.048 30.2516 190.147 26.9368 183.086 26.9368C175.783 26.9368 169.8 30.3943 166.803 36.3472L165.468 39.0012L164.962 37.5127C164.207 35.2907 162.089 32.2973 160.134 30.6893C156.936 28.0594 151.115 26.5767 146.576 27.2365C137.199 28.5984 131.528 34.3174 130.886 43.0573L130.65 46.265L128.967 44.7747C126.948 42.9862 124.66 42.2054 119.3 41.4757C113.247 40.6512 112.093 40.0317 112.33 37.7312C112.513 35.9524 114.094 34.9481 116.98 34.7764C119.667 34.6167 121.07 35.1759 121.837 36.7123C122.359 37.7583 122.386 37.7645 126.584 37.7645H130.806L130.535 36.3143C129.838 32.5745 127.627 29.9214 123.832 28.2701C120.745 26.9271 115.279 26.5748 112.205 27.5203ZM69.0126 35.9404C70.3149 37.017 70.7877 39.8075 69.9837 41.6725C69.2698 43.3288 67.518 43.9518 63.5753 43.9518H60.3429V39.5047V35.0576H64.1435C67.5212 35.0576 68.0633 35.1558 69.0126 35.9404ZM152.644 35.5897C154.016 36.1403 156.525 38.7285 156.525 39.5928C156.525 39.9606 157.618 40.0847 160.851 40.0843L165.177 40.0839V44.3377V48.5911L161.06 48.5918L156.944 48.5922L156.123 50.1386C153.236 55.5769 144.339 55.039 141.125 49.2314C139.865 46.9545 139.85 41.7448 141.098 39.5047C142.792 36.4617 145.223 35.0974 148.992 35.0726C150.272 35.0645 151.916 35.2969 152.644 35.5897ZM187.172 36.2618C188.995 37.1384 191.023 39.4513 191.543 41.2448C192.132 43.2789 192.019 46.8872 191.315 48.5079C188.952 53.9539 181.671 55.5602 177.22 51.6178C174.838 49.5079 174.074 47.4418 174.319 43.7735C174.471 41.5031 174.738 40.5519 175.564 39.3538C178.25 35.4535 182.91 34.2122 187.172 36.2618Z" fill="#004D71"/>
</svg>
