<?xml version="1.0"?>
<svg xmlns="http://www.w3.org/2000/svg" viewBox="0 0 32 32" width="512" height="512"><g id="Layer_13" data-name="Layer 13"><path d="M30.68,21.32a14.56,14.56,0,0,0-8.1-12.77h0A14.07,14.07,0,0,0,19,7.3,14.83,14.83,0,0,0,16,7a15.06,15.06,0,0,0-1.51.08A14.54,14.54,0,0,0,13,7.3h0A14.06,14.06,0,0,0,9.43,8.55a14.57,14.57,0,0,0-8.1,12.77A1.75,1.75,0,0,0,.25,22.93v.32A1.75,1.75,0,0,0,2,25H30a1.75,1.75,0,0,0,1.75-1.75v-.32A1.75,1.75,0,0,0,30.68,21.32ZM19.39,8.42a13.06,13.06,0,0,1,2.46.89v2.42a1.12,1.12,0,0,1-1.12,1.13h-.21a1.13,1.13,0,0,1-1.13-1.13Zm-5.78,3.31V8.22l.66-.1.42-.05C15.12,8,15.56,8,16,8h0c.44,0,.88,0,1.31.07l.42.06.65.1v5.17a1.13,1.13,0,0,1-1.13,1.13H14.73a1.13,1.13,0,0,1-1.13-1.13ZM10.15,9.31l.16-.07q.45-.21.91-.38l.19-.07c.36-.13.73-.24,1.1-.34l.1,0v3.31a1.13,1.13,0,0,1-1.13,1.13h-.21a1.12,1.12,0,0,1-1.12-1.13Zm-1,.52v1.9a2.12,2.12,0,0,0,2.12,2.13h.21a2.11,2.11,0,0,0,1.14-.34,2.12,2.12,0,0,0,2.11,2h2.53a2.12,2.12,0,0,0,2.11-2,2.11,2.11,0,0,0,1.14.34h.21a2.12,2.12,0,0,0,2.12-2.13V9.83a13.57,13.57,0,0,1,6.83,11.35H2.32A13.57,13.57,0,0,1,9.15,9.83Zm21.6,13.42A.75.75,0,0,1,30,24H2a.75.75,0,0,1-.75-.75v-.32A.75.75,0,0,1,2,22.18H30a.75.75,0,0,1,.75.75Z"/></g></svg>
