<svg id="Layer_1" enable-background="new 0 0 512 512" height="512" viewBox="0 0 512 512" width="512" xmlns="http://www.w3.org/2000/svg"><path d="m466.893 441.861h-267.758c-1.81 0-3.574-.209-5.265-.606-.503.067-1.022.09-1.553.04-95.494-7.936-170.298-89.311-170.298-185.256 0-102.505 83.395-185.899 185.899-185.899 101.443 0 184.735 82.385 185.889 183.745 51.311 23.497 84.763 74.776 84.763 132.309 0 2.932-.094 5.913-.274 8.908 6.971 3.978 11.685 11.484 11.685 20.071v3.601c0 12.729-10.358 23.087-23.088 23.087zm-267.758-35.597c-4.91 0-8.906 3.996-8.906 8.908v3.601c0 4.912 3.996 8.908 8.906 8.908h267.758c4.912 0 8.908-3.996 8.908-8.908v-3.601c0-4.912-3.996-8.908-8.908-8.908zm8.784-321.944c-94.686 0-171.719 77.033-171.719 171.719 0 82.985 60.57 154.169 140.69 168.914-.548-1.967-.84-4.039-.84-6.179v-3.601c0-2.436.379-4.784 1.08-6.989-71.48-14.437-124.414-78.432-124.414-152.143 0-85.578 69.624-155.202 155.202-155.202 75.744 0 139.837 53.233 152.584 126.64 1.067.279 2.135.575 3.197.887 6.726 1.974 12.054 6.45 15.24 12.135-7.904-87.317-81.875-156.181-171.02-156.181zm-64.258 297.199c13.329 6.888 27.917 11.712 43.361 14.005.234-.146.472-.287.712-.424-.184-2.991-.276-5.972-.276-8.908 0-61.912 38.669-116.503 96.655-137.138 1.52-9.555 8.374-17.801 18.217-20.69 14.063-4.131 28.75-5.386 43.186-3.706-2.499-11.712-6.457-22.815-11.665-33.14l-8.26 4.769c-3.395 1.96-7.73.795-9.685-2.595-1.958-3.392-.797-7.727 2.595-9.685l8.314-4.8c-10.842-16.881-25.253-31.168-42.136-41.943l-4.73 8.192c-1.96 3.39-6.297 4.555-9.685 2.595-3.392-1.958-4.553-6.293-2.595-9.685l4.688-8.12c-17.379-8.769-36.828-14.063-57.35-15.058v9.068c0 3.916-3.174 7.09-7.09 7.09s-7.09-3.174-7.09-7.09v-9.063c-20.511 1.021-39.881 6.443-57.184 15.34l4.522 7.833c1.958 3.39.797 7.727-2.595 9.685-3.392 1.96-7.73.795-9.685-2.595l-4.512-7.811c-16.715 10.844-31.007 25.136-41.852 41.852l7.813 4.512c3.392 1.958 4.553 6.293 2.595 9.685-1.958 3.39-6.295 4.555-9.685 2.595l-7.835-4.522c-8.897 17.303-14.319 36.673-15.34 57.184h9.063c3.916 0 7.09 3.174 7.09 7.09 0 3.917-3.174 7.09-7.09 7.09h-9.059c1.033 20.338 6.488 39.724 15.46 57.114l7.71-4.452c3.39-1.965 7.727-.801 9.685 2.595 1.958 3.39.797 7.727-2.595 9.685l-7.68 4.436c10.815 16.654 25.048 30.98 41.751 41.873l4.479-7.757c1.955-3.395 6.288-4.56 9.683-2.597 3.392 1.956 4.555 6.293 2.597 9.683zm58.112 10.565h262.483c.09-1.98.133-3.949.133-5.891 0-41.089-18.901-78.642-49.731-103.037l-10.39 32.796c-1.179 3.736-5.164 5.804-8.9 4.618-3.733-1.181-5.799-5.166-4.616-8.899l11.739-37.064c-6.91-4.292-14.279-7.977-22.058-10.979l-18.306 76.184c-.912 3.805-4.726 6.151-8.551 5.236-3.806-.914-6.152-4.742-5.236-8.551l19.384-80.67c1.446-6.024-2.075-12.112-8.019-13.856-17.451-5.123-35.943-5.123-53.383 0-5.945 1.745-9.467 7.831-8.021 13.857l19.384 80.67c.914 3.806-1.43 7.635-5.238 8.549-3.796.911-7.635-1.432-8.549-5.238l-18.306-76.182c-7.728 2.981-15.055 6.637-21.925 10.891l10.529 36.761c1.078 3.765-1.1 7.691-4.863 8.769-3.769 1.08-7.692-1.098-8.769-4.863l-9.18-32.053c-30.843 24.384-49.748 61.933-49.748 103.06.002 1.945.047 3.914.137 5.892zm-59.93-91.146c-2.461 0-4.852-1.282-6.161-3.572-1.944-3.397-.765-7.73 2.633-9.674l62.505-35.759-.197-95.002c-.007-3.915 3.159-7.095 7.076-7.104h.014c3.909 0 7.081 3.165 7.09 7.076l.215 103.246-69.662 39.851c-1.109.635-2.319.938-3.513.938z"/></svg>